SplineFontDB: 3.2
FontName: Untitled1
FullName: Untitled1
FamilyName: Untitled1
Weight: Regular
Copyright: Copyright (c) 2025, Bastien
UComments: "2025-9-7: Created with FontForge (http://fontforge.org)"
Version: 001.000
ItalicAngle: 0
UnderlinePosition: -100
UnderlineWidth: 50
Ascent: 800
Descent: 200
InvalidEm: 0
LayerCount: 2
Layer: 0 0 "Arri+AOgA-re" 1
Layer: 1 0 "Avant" 0
XUID: [1021 917 -949163795 12677154]
OS2Version: 0
OS2_WeightWidthSlopeOnly: 0
OS2_UseTypoMetrics: 1
CreationTime: 1757238327
ModificationTime: 1757238327
OS2TypoAscent: 0
OS2TypoAOffset: 1
OS2TypoDescent: 0
OS2TypoDOffset: 1
OS2TypoLinegap: 0
OS2WinAscent: 0
OS2WinAOffset: 1
OS2WinDescent: 0
OS2WinDOffset: 1
HheadAscent: 0
HheadAOffset: 1
HheadDescent: 0
HheadDOffset: 1
OS2Vendor: 'PfEd'
DEI: 91125
Encoding: ISO8859-1
UnicodeInterp: none
NameList: AGL For New Fonts
DisplaySize: -48
AntiAlias: 1
FitToEm: 0
BeginChars: 256 95

StartChar: exclam
Encoding: 33 33 1
Width: 332
Flags: HW
LayerCount: 2
Fore
SplineSet
69.8720703125 722.682617188 m 1
 271.04296875 722.682617188 l 1
 260.983398438 238.75 l 1
 79.9306640625 238.75 l 1
 69.8720703125 722.682617188 l 1
276.072265625 106.0078125 m 0
 276.072265625 77.99609375 264.943359375 51.134765625 245.13671875 31.328125 c 0
 225.331054688 11.5224609375 198.469726562 0.392578125 170.45703125 0.392578125 c 0
 142.4453125 0.392578125 115.583984375 11.5224609375 95.77734375 31.328125 c 0
 75.9716796875 51.134765625 64.841796875 77.99609375 64.841796875 106.0078125 c 0
 64.841796875 134.020507812 75.9716796875 160.881835938 95.77734375 180.6875 c 0
 115.583984375 200.493164062 142.4453125 211.623046875 170.45703125 211.623046875 c 0
 198.469726562 211.623046875 225.331054688 200.493164062 245.13671875 180.6875 c 0
 264.943359375 160.881835938 276.072265625 134.020507812 276.072265625 106.0078125 c 0
EndSplineSet
EndChar

StartChar: quotedbl
Encoding: 34 34 2
Width: 420
Flags: HW
LayerCount: 2
Fore
SplineSet
15.849609375 772.936523438 m 1
 206.641601562 772.936523438 l 1
 206.641601562 577.215820312 l 1
 15.849609375 577.215820312 l 1
 15.849609375 772.936523438 l 1
415.122070312 577.215820312 m 1
 224.331054688 577.215820312 l 1
 224.331054688 772.936523438 l 1
 415.122070312 772.936523438 l 1
 415.122070312 577.215820312 l 1
EndSplineSet
EndChar

StartChar: numbersign
Encoding: 35 35 3
Width: 665
Flags: HW
LayerCount: 2
Fore
SplineSet
66.240234375 371.85546875 m 1
 66.240234375 536.951171875 l 1
 615.184570312 536.951171875 l 1
 615.184570312 371.85546875 l 1
 66.240234375 371.85546875 l 1
66.240234375 103.576171875 m 1
 66.240234375 268.671875 l 1
 615.184570312 268.671875 l 1
 615.184570312 103.576171875 l 1
 66.240234375 103.576171875 l 1
66.240234375 0.392578125 m 1
 204.510742188 722.682617188 l 1
 369.60546875 722.682617188 l 1
 231.3359375 0.392578125 l 1
 66.240234375 0.392578125 l 1
311.818359375 0.392578125 m 1
 450.088867188 722.682617188 l 1
 615.184570312 722.682617188 l 1
 476.9140625 0.392578125 l 1
 311.818359375 0.392578125 l 1
EndSplineSet
EndChar

StartChar: dollar
Encoding: 36 36 4
Width: 665
Flags: HW
LayerCount: 2
Fore
SplineSet
613.116210938 589.458007812 m 1
 613.116210938 486.2734375 l 1
 448.020507812 486.2734375 l 1
 448.020507812 589.458007812 l 1
 613.116210938 589.458007812 l 1
24.966796875 133.618164062 m 1
 24.966796875 236.801757812 l 1
 190.0625 236.801757812 l 1
 190.0625 133.618164062 l 1
 24.966796875 133.618164062 l 1
347.518554688 730.9375 m 0
 454.083984375 730.9375 553.66015625 677.895507812 613.116210938 589.458007812 c 1
 477.877929688 494.762695312 l 1
 449.328125 539.0703125 400.227539062 565.841796875 347.518554688 565.841796875 c 0
 284.140625 565.841796875 226.137695312 567.743164062 226.137695312 513.206054688 c 0
 226.137695312 479.354492188 255.475585938 468.17578125 291.256835938 460.569335938 c 2
 424.493164062 432.249023438 l 2
 558.501953125 403.763671875 656.45703125 343.483398438 656.45703125 213.997070312 c 0
 656.45703125 52.6923828125 514.3671875 -7.8623046875 333.90625 -7.8623046875 c 0
 215.25390625 -7.8623046875 102.478515625 43.7841796875 24.966796875 133.618164062 c 1
 160.205078125 228.3125 l 1
 206.544921875 182.759765625 268.92578125 157.233398438 333.90625 157.233398438 c 0
 397.903320312 157.233398438 455.286132812 159.055664062 455.286132812 213.997070312 c 0
 455.286132812 248.984375 426.814453125 262.970703125 390.166992188 270.760742188 c 2
 256.931640625 299.08203125 l 2
 123.825195312 327.375 24.966796875 385.0078125 24.966796875 513.206054688 c 0
 24.966796875 673.303710938 167.677734375 730.9375 347.518554688 730.9375 c 0
264.970703125 751.57421875 m 1
 430.06640625 751.57421875 l 1
 416.453125 -28.498046875 l 1
 251.358398438 -28.498046875 l 1
 264.970703125 751.57421875 l 1
EndSplineSet
EndChar

StartChar: percent
Encoding: 37 37 5
Width: 870
Flags: HW
LayerCount: 2
Fore
SplineSet
100.09765625 0.392578125 m 1
 590.137695312 722.682617188 l 1
 791.30859375 722.682617188 l 1
 301.268554688 0.392578125 l 1
 100.09765625 0.392578125 l 1
200.68359375 730.9375 m 1
 308.3671875 730.9375 378.880859375 667.112304688 378.880859375 561.19921875 c 0
 378.880859375 455.286132812 308.3671875 391.4609375 200.68359375 391.4609375 c 0
 92.9990234375 391.4609375 22.4853515625 455.286132812 22.4853515625 561.19921875 c 0
 22.4853515625 667.112304688 92.9990234375 730.9375 200.68359375 730.9375 c 1
 200.68359375 565.841796875 l 1
 155.809570312 565.841796875 223.65625 579.430664062 223.65625 561.19921875 c 0
 223.65625 542.967773438 155.809570312 556.555664062 200.68359375 556.555664062 c 0
 245.556640625 556.555664062 177.709960938 542.967773438 177.709960938 561.19921875 c 0
 177.709960938 579.430664062 245.556640625 565.841796875 200.68359375 565.841796875 c 1
 200.68359375 730.9375 l 1
690.723632812 -7.8623046875 m 1
 583.0390625 -7.8623046875 512.525390625 55.962890625 512.525390625 161.876953125 c 0
 512.525390625 267.790039062 583.0390625 331.615234375 690.723632812 331.615234375 c 0
 798.407226562 331.615234375 868.920898438 267.790039062 868.920898438 161.876953125 c 0
 868.920898438 55.962890625 798.407226562 -7.8623046875 690.723632812 -7.8623046875 c 1
 690.723632812 157.233398438 l 1
 735.596679688 157.233398438 667.75 143.645507812 667.75 161.876953125 c 0
 667.75 180.107421875 735.596679688 166.51953125 690.723632812 166.51953125 c 0
 645.849609375 166.51953125 713.696289062 180.107421875 713.696289062 161.876953125 c 0
 713.696289062 143.645507812 645.849609375 157.233398438 690.723632812 157.233398438 c 1
 690.723632812 -7.8623046875 l 1
EndSplineSet
EndChar

StartChar: ampersand
Encoding: 38 38 6
Width: 720
Flags: HW
LayerCount: 2
Fore
SplineSet
332.197265625 730.9375 m 0
 425.32421875 730.9375 514.216796875 692.03515625 577.40625 623.625976562 c 1
 455.874023438 553.459960938 l 1
 458.25 623.41015625 402.1875 681.408203125 332.197265625 681.408203125 c 0
 255.220703125 681.408203125 218.494140625 619.787109375 218.494140625 536.536132812 c 0
 218.494140625 476.719726562 249.618164062 421.212890625 300.653320312 390.012695312 c 1
 713.208984375 390.012695312 l 1
 713.208984375 340.483398438 l 1
 300.653320312 340.483398438 l 1
 184.787109375 365.248046875 l 2
 104.555664062 383.145507812 47.4970703125 454.333984375 47.4970703125 536.536132812 c 0
 47.4970703125 678.4921875 173.127929688 730.9375 332.197265625 730.9375 c 0
184.787109375 365.248046875 m 1
 300.653320312 340.483398438 l 1
 242.649414062 320.57421875 203.696289062 266.01953125 203.696289062 204.693359375 c 0
 203.696289062 113.916015625 232.260742188 41.6669921875 312.950195312 41.6669921875 c 0
 377.555664062 41.6669921875 431.875976562 90.1494140625 439.188476562 154.340820312 c 1
 460.073242188 92.7626953125 l 1
 409.329101562 29.171875 332.397460938 -7.8623046875 251.041992188 -7.8623046875 c 0
 112.366210938 -7.8623046875 12.5849609375 59 12.5849609375 189.216796875 c 0
 12.5849609375 284.951171875 89.076171875 363.142578125 184.787109375 365.248046875 c 1
439.188476562 365.248046875 m 1
 594.091796875 365.248046875 l 1
 594.091796875 154.340820312 l 1
 692.572265625 0.392578125 l 1
 491.401367188 0.392578125 l 1
 439.188476562 154.340820312 l 1
 439.188476562 365.248046875 l 1
EndSplineSet
EndChar

StartChar: quotesingle
Encoding: 39 39 7
Width: 162
Flags: HW
LayerCount: 2
Fore
SplineSet
0 800 m 1
 196.098632812 800 l 1
 186.29296875 598.834960938 l 1
 9.8056640625 598.834960938 l 1
 0 800 l 1
EndSplineSet
EndChar

StartChar: parenleft
Encoding: 40 40 8
Width: 367
Flags: HW
LayerCount: 2
Fore
SplineSet
204.721679688 772.936523438 m 1
 361.298828125 772.936523438 l 1
 290.55078125 636.927734375 253.614257812 485.875 253.614257812 332.565429688 c 0
 253.614257812 179.255859375 290.55078125 28.203125 361.298828125 -107.806640625 c 1
 204.721679688 -107.806640625 l 1
 112.458007812 20.494140625 62.822265625 174.534179688 62.822265625 332.565429688 c 0
 62.822265625 490.595703125 112.458007812 644.635742188 204.721679688 772.936523438 c 1
EndSplineSet
EndChar

StartChar: parenright
Encoding: 41 41 9
Width: 367
Flags: HW
LayerCount: 2
Fore
SplineSet
15.849609375 772.936523438 m 1
 172.426757812 772.936523438 l 1
 264.690429688 644.635742188 314.326171875 490.595703125 314.326171875 332.565429688 c 0
 314.326171875 174.534179688 264.690429688 20.494140625 172.426757812 -107.806640625 c 1
 15.849609375 -107.806640625 l 1
 86.59765625 28.203125 123.534179688 179.255859375 123.534179688 332.565429688 c 0
 123.534179688 485.875 86.59765625 636.927734375 15.849609375 772.936523438 c 1
EndSplineSet
EndChar

StartChar: asterisk
Encoding: 42 42 10
Width: 588
Flags: HW
LayerCount: 2
Fore
SplineSet
280.430664062 536.213867188 m 1
 82.0185546875 570.0625 l 1
 142.013671875 754.704101562 l 1
 322.427734375 665.462890625 l 1
 280.430664062 536.213867188 l 1
356.40234375 560.897460938 m 1
 262.899414062 382.654296875 l 1
 105.831054688 496.76953125 l 1
 246.455078125 640.778320312 l 1
 356.40234375 560.897460938 l 1
356.40234375 640.778320312 m 1
 497.02734375 496.76953125 l 1
 339.958984375 382.654296875 l 1
 246.455078125 560.897460938 l 1
 356.40234375 640.778320312 l 1
280.430664062 665.462890625 m 1
 460.844726562 754.704101562 l 1
 520.83984375 570.0625 l 1
 322.427734375 536.213867188 l 1
 280.430664062 665.462890625 l 1
233.478515625 600.837890625 m 1
 204.356445312 800 l 1
 398.501953125 800 l 1
 369.379882812 600.837890625 l 1
 233.478515625 600.837890625 l 1
EndSplineSet
EndChar

StartChar: plus
Encoding: 43 43 11
Width: 665
Flags: HW
LayerCount: 2
Fore
SplineSet
85.330078125 206.756835938 m 1
 85.330078125 371.852539062 l 1
 596.094726562 371.852539062 l 1
 596.094726562 206.756835938 l 1
 85.330078125 206.756835938 l 1
240.126953125 33.921875 m 1
 240.126953125 544.686523438 l 1
 441.297851562 544.686523438 l 1
 441.297851562 33.921875 l 1
 240.126953125 33.921875 l 1
EndSplineSet
EndChar

StartChar: comma
Encoding: 44 44 12
Width: 254
Flags: HW
LayerCount: 2
Fore
SplineSet
35.32421875 103.577148438 m 1
 236.495117188 103.577148438 l 1
 206.01953125 -102.791015625 l 1
 24.966796875 -102.791015625 l 1
 35.32421875 103.577148438 l 1
EndSplineSet
EndChar

StartChar: hyphen
Encoding: 45 45 13
Width: 665
Flags: HW
LayerCount: 2
Fore
SplineSet
85.330078125 206.756835938 m 1
 85.330078125 371.852539062 l 1
 596.094726562 371.852539062 l 1
 596.094726562 206.756835938 l 1
 85.330078125 206.756835938 l 1
EndSplineSet
EndChar

StartChar: period
Encoding: 46 46 14
Width: 277
Flags: HW
LayerCount: 2
Fore
SplineSet
247.696289062 97.7529296875 m 0
 247.696289062 69.7412109375 236.567382812 42.8798828125 216.760742188 23.0732421875 c 0
 196.955078125 3.267578125 170.09375 -7.8623046875 142.081054688 -7.8623046875 c 0
 114.069335938 -7.8623046875 87.2080078125 3.267578125 67.40234375 23.0732421875 c 0
 47.595703125 42.8798828125 36.466796875 69.7412109375 36.466796875 97.7529296875 c 0
 36.466796875 125.765625 47.595703125 152.626953125 67.40234375 172.432617188 c 0
 87.2080078125 192.23828125 114.069335938 203.368164062 142.081054688 203.368164062 c 0
 170.09375 203.368164062 196.955078125 192.23828125 216.760742188 172.432617188 c 0
 236.567382812 152.626953125 247.696289062 125.765625 247.696289062 97.7529296875 c 0
EndSplineSet
EndChar

StartChar: slash
Encoding: 47 47 15
Width: 459
Flags: HW
LayerCount: 2
Fore
SplineSet
253.559570312 730.9375 m 1
 454.73046875 730.9375 l 1
 217.8828125 -7.8623046875 l 1
 16.7119140625 -7.8623046875 l 1
 253.559570312 730.9375 l 1
EndSplineSet
EndChar

StartChar: zero
Encoding: 48 48 16
Width: 609
Flags: HW
LayerCount: 2
Fore
SplineSet
312.336914062 730.9375 m 1
 507.736328125 730.9375 599.706054688 573.399414062 599.706054688 361.538085938 c 0
 599.706054688 149.67578125 507.736328125 -7.8623046875 312.336914062 -7.8623046875 c 0
 116.936523438 -7.8623046875 24.966796875 149.67578125 24.966796875 361.538085938 c 0
 24.966796875 573.399414062 116.936523438 730.9375 312.336914062 730.9375 c 1
 312.336914062 681.408203125 l 1
 204.913085938 681.408203125 206.01953125 482.940429688 206.01953125 361.538085938 c 0
 206.01953125 240.135742188 204.913085938 41.6669921875 312.336914062 41.6669921875 c 0
 419.759765625 41.6669921875 418.653320312 240.135742188 418.653320312 361.538085938 c 0
 418.653320312 482.940429688 419.759765625 681.408203125 312.336914062 681.408203125 c 1
 312.336914062 730.9375 l 1
EndSplineSet
EndChar

StartChar: one
Encoding: 49 49 17
Width: 609
Flags: HW
LayerCount: 2
Fore
SplineSet
217.990234375 722.682617188 m 1
 419.161132812 722.682617188 l 1
 419.161132812 0.392578125 l 1
 217.990234375 0.392578125 l 1
 217.990234375 656.645507812 l 1
 66.240234375 548.306640625 l 1
 66.240234375 614.34375 l 1
 217.990234375 722.682617188 l 1
66.240234375 49.921875 m 1
 318.576171875 49.921875 l 1
 562.040039062 49.921875 l 1
 562.040039062 0.392578125 l 1
 66.240234375 0.392578125 l 1
 66.240234375 49.921875 l 1
EndSplineSet
EndChar

StartChar: two
Encoding: 50 50 18
Width: 609
Flags: HW
LayerCount: 2
Fore
SplineSet
38.466796875 618.466796875 m 1
 100.161132812 689.885742188 189.869140625 730.9375 284.245117188 730.9375 c 0
 435.634765625 730.9375 543.572265625 656.072265625 543.572265625 513.223632812 c 0
 543.572265625 426.743164062 467.321289062 368.301757812 393.706054688 320.041992188 c 0
 393.678710938 320.024414062 62.87109375 103.15625 62.8447265625 103.138671875 c 2
 24.966796875 157.233398438 l 1
 24.9697265625 157.235351562 58.052734375 178.922851562 58.0556640625 178.924804688 c 0
 192.859375 267.297851562 352.4609375 354.665039062 352.4609375 513.223632812 c 0
 352.4609375 600.31640625 359.51953125 681.408203125 284.245117188 681.408203125 c 0
 207.415039062 681.408203125 133.99609375 649.669921875 81.3603515625 593.702148438 c 1
 38.466796875 618.466796875 l 1
24.966796875 0.392578125 m 1
 24.966796875 157.233398438 l 1
 574.528320312 157.233398438 l 1
 574.528320312 0.392578125 l 1
 24.966796875 0.392578125 l 1
EndSplineSet
EndChar

StartChar: three
Encoding: 51 51 19
Width: 609
Flags: HW
LayerCount: 2
Fore
SplineSet
81.3603515625 722.682617188 m 1
 558.432617188 722.682617188 l 1
 558.432617188 648.390625 l 1
 558.432617188 574.09765625 l 1
 350.541015625 583.239257812 l 1
 208.291992188 440.990234375 l 1
 81.3603515625 722.682617188 l 1
208.291992188 440.990234375 m 1
 353.666015625 583.239257812 l 1
 513.713867188 583.239257812 599.706054688 464.498046875 599.706054688 295.942382812 c 0
 599.706054688 109.046875 480.985351562 -7.8623046875 293.609375 -7.8623046875 c 0
 163.987304688 -7.8623046875 75.55859375 42.572265625 9.56640625 154.137695312 c 1
 138.041992188 244.09765625 l 1
 171.260742188 179.221679688 220.72265625 148.978515625 293.609375 148.978515625 c 0
 368.271484375 148.978515625 398.53515625 213.134765625 398.53515625 295.942382812 c 0
 398.53515625 375.974609375 381.911132812 442.907226562 312.336914062 442.907226562 c 1
 208.291992188 300.658203125 l 1
 208.291992188 440.990234375 l 1
EndSplineSet
EndChar

StartChar: four
Encoding: 52 52 20
Width: 609
Flags: HW
LayerCount: 2
Fore
SplineSet
286.66015625 722.682617188 m 1
 487.831054688 722.682617188 l 1
 226.137695312 267.63671875 l 1
 24.966796875 267.63671875 l 1
 286.66015625 722.682617188 l 1
24.966796875 102.541015625 m 1
 24.966796875 267.63671875 l 1
 607.9609375 267.63671875 l 1
 607.9609375 102.541015625 l 1
 24.966796875 102.541015625 l 1
331.05859375 390.430664062 m 1
 512.111328125 433.771484375 l 1
 512.111328125 0.392578125 l 1
 331.05859375 0.392578125 l 1
 331.05859375 390.430664062 l 1
EndSplineSet
EndChar

StartChar: five
Encoding: 53 53 21
Width: 609
Flags: HW
LayerCount: 2
Fore
SplineSet
66.328125 722.682617188 m 1
 530.922851562 722.682617188 l 1
 530.922851562 557.586914062 l 1
 66.328125 557.586914062 l 1
 66.328125 722.682617188 l 1
66.328125 722.682617188 m 1
 247.380859375 722.682617188 l 1
 247.380859375 274.866210938 l 1
 66.328125 274.866210938 l 1
 66.328125 722.682617188 l 1
197.852539062 274.866210938 m 1
 177.537109375 392.233398438 248.981445312 477.106445312 368.09375 477.106445312 c 0
 511.641601562 477.106445312 599.793945312 383.693359375 599.793945312 238.75 c 0
 599.793945312 70.6484375 463.729492188 -7.8623046875 281.209960938 -7.8623046875 c 0
 173.65234375 -7.8623046875 73.0966796875 45.4794921875 12.7783203125 134.532226562 c 1
 148.017578125 229.227539062 l 1
 174.112304688 179.862304688 225.37109375 148.978515625 281.209960938 148.978515625 c 0
 348.297851562 148.978515625 398.623046875 177.174804688 398.623046875 238.75 c 0
 398.623046875 293.060546875 361.744140625 325.219726562 306.185546875 325.219726562 c 0
 276.854492188 325.219726562 251.896484375 303.848632812 247.380859375 274.866210938 c 1
 197.852539062 274.866210938 l 1
EndSplineSet
EndChar

StartChar: six
Encoding: 54 54 22
Width: 609
Flags: HW
LayerCount: 2
Fore
SplineSet
579.203125 604.328125 m 1
 457.489257812 519.103515625 l 1
 432.975585938 558.442382812 389.903320312 582.352539062 343.551757812 582.352539062 c 0
 224.624023438 582.352539062 226.137695312 456.560546875 226.137695312 318.202148438 c 2
 226.137695312 242.358398438 l 2
 226.137695312 182.875976562 256.030273438 140.72265625 312.336914062 140.72265625 c 0
 371.805664062 140.72265625 406.790039062 181.388671875 406.790039062 242.358398438 c 0
 406.790039062 302.569335938 374.326171875 343.994140625 316.463867188 343.994140625 c 0
 258.6015625 343.994140625 226.137695312 302.569335938 226.137695312 242.358398438 c 1
 193.119140625 242.358398438 l 1
 193.119140625 380.654296875 251.392578125 484.326171875 378.372070312 484.326171875 c 0
 521.830078125 484.326171875 607.9609375 388.407226562 607.9609375 242.358398438 c 0
 607.9609375 78.7666015625 485.265625 -7.8623046875 312.336914062 -7.8623046875 c 0
 127.625976562 -7.8623046875 24.966796875 125.467773438 24.966796875 318.202148438 c 0
 24.966796875 584.051757812 98.8994140625 730.9375 343.551757812 730.9375 c 0
 438.3671875 730.9375 526.865234375 683.390625 579.203125 604.328125 c 1
EndSplineSet
EndChar

StartChar: seven
Encoding: 55 55 23
Width: 609
Flags: HW
LayerCount: 2
Fore
SplineSet
24.966796875 557.586914062 m 1
 24.966796875 722.682617188 l 1
 599.706054688 722.682617188 l 1
 599.706054688 557.586914062 l 1
 24.966796875 557.586914062 l 1
398.53515625 557.586914062 m 1
 599.706054688 557.586914062 l 1
 303.672851562 0.392578125 l 1
 102.501953125 0.392578125 l 1
 398.53515625 557.586914062 l 1
EndSplineSet
EndChar

StartChar: eight
Encoding: 56 56 24
Width: 609
Flags: HW
LayerCount: 2
Fore
SplineSet
312.336914062 590.60546875 m 1
 312.336914062 730.9375 l 1
 458.135742188 730.9375 558.432617188 652.30859375 558.432617188 512.1875 c 0
 558.432617188 381.13671875 453.892578125 318.203125 312.336914062 318.203125 c 0
 170.78125 318.203125 66.240234375 381.13671875 66.240234375 512.1875 c 0
 66.240234375 652.30859375 166.537109375 730.9375 312.336914062 730.9375 c 1
 312.336914062 590.60546875 l 1
 275.44921875 590.60546875 267.411132812 554.736328125 267.411132812 512.1875 c 0
 267.411132812 469.638671875 275.44921875 433.76953125 312.336914062 433.76953125 c 0
 349.223632812 433.76953125 357.26171875 469.638671875 357.26171875 512.1875 c 0
 357.26171875 554.736328125 349.223632812 590.60546875 312.336914062 590.60546875 c 1
312.336914062 318.203125 m 1
 312.336914062 433.76953125 l 1
 474.759765625 433.76953125 599.706054688 372.353515625 599.706054688 225.336914062 c 0
 599.706054688 69.95703125 478.734375 -7.8623046875 312.336914062 -7.8623046875 c 0
 145.938476562 -7.8623046875 24.966796875 69.95703125 24.966796875 225.336914062 c 0
 24.966796875 372.353515625 149.913085938 433.76953125 312.336914062 433.76953125 c 1
 312.336914062 318.203125 l 1
 258.0390625 318.203125 226.137695312 281.026367188 226.137695312 225.336914062 c 0
 226.137695312 169.647460938 258.0390625 132.469726562 312.336914062 132.469726562 c 0
 366.633789062 132.469726562 398.53515625 169.647460938 398.53515625 225.336914062 c 0
 398.53515625 281.026367188 366.633789062 318.203125 312.336914062 318.203125 c 1
EndSplineSet
EndChar

StartChar: nine
Encoding: 57 57 25
Width: 609
Flags: HW
LayerCount: 2
Fore
SplineSet
134.4921875 203.97265625 m 1
 172.115234375 168.643554688 221.786132812 148.978515625 273.396484375 148.978515625 c 0
 425.047851562 148.978515625 409.537109375 312.62109375 409.537109375 487.940429688 c 0
 409.537109375 537.513671875 374.639648438 565.841796875 323.338867188 565.841796875 c 0
 272.038085938 565.841796875 237.140625 537.513671875 237.140625 487.940429688 c 0
 237.140625 431.591796875 268.702148438 393.53125 323.338867188 393.53125 c 0
 377.975585938 393.53125 409.537109375 431.591796875 409.537109375 487.940429688 c 1
 434.68359375 487.940429688 l 1
 470.650390625 371.327148438 383.465820312 253.19921875 261.430664062 253.19921875 c 0
 121.161132812 253.19921875 35.9697265625 345.727539062 35.9697265625 487.940429688 c 0
 35.9697265625 646.876953125 155.279296875 730.9375 323.338867188 730.9375 c 0
 506.947265625 730.9375 610.708007812 600.342773438 610.708007812 409.693359375 c 0
 610.708007812 137.979492188 526.772460938 -7.8623046875 273.396484375 -7.8623046875 c 0
 171.704101562 -7.8623046875 75.63671875 38.8076171875 12.7783203125 118.747070312 c 1
 134.4921875 203.97265625 l 1
EndSplineSet
EndChar

StartChar: colon
Encoding: 58 58 26
Width: 304
Flags: HW
LayerCount: 2
Fore
SplineSet
261.884765625 97.7529296875 m 0
 261.884765625 69.7412109375 250.755859375 42.8798828125 230.94921875 23.0732421875 c 0
 211.143554688 3.267578125 184.282226562 -7.8623046875 156.26953125 -7.8623046875 c 0
 128.2578125 -7.8623046875 101.396484375 3.267578125 81.58984375 23.0732421875 c 0
 61.7841796875 42.8798828125 50.654296875 69.7412109375 50.654296875 97.7529296875 c 0
 50.654296875 125.765625 61.7841796875 152.626953125 81.58984375 172.432617188 c 0
 101.396484375 192.23828125 128.2578125 203.368164062 156.26953125 203.368164062 c 0
 184.282226562 203.368164062 211.143554688 192.23828125 230.94921875 172.432617188 c 0
 250.755859375 152.626953125 261.884765625 125.765625 261.884765625 97.7529296875 c 0
261.884765625 439.590820312 m 0
 261.884765625 411.578125 250.755859375 384.716796875 230.94921875 364.911132812 c 0
 211.143554688 345.10546875 184.282226562 333.975585938 156.26953125 333.975585938 c 0
 128.2578125 333.975585938 101.396484375 345.10546875 81.58984375 364.911132812 c 0
 61.7841796875 384.716796875 50.654296875 411.578125 50.654296875 439.590820312 c 0
 50.654296875 467.602539062 61.7841796875 494.463867188 81.58984375 514.270507812 c 0
 101.396484375 534.076171875 128.2578125 545.206054688 156.26953125 545.206054688 c 0
 184.282226562 545.206054688 211.143554688 534.076171875 230.94921875 514.270507812 c 0
 250.755859375 494.463867188 261.884765625 467.602539062 261.884765625 439.590820312 c 0
EndSplineSet
EndChar

StartChar: semicolon
Encoding: 59 59 27
Width: 304
Flags: HW
LayerCount: 2
Fore
SplineSet
261.884765625 97.7529296875 m 0
 261.884765625 69.7412109375 250.755859375 42.8798828125 230.94921875 23.0732421875 c 0
 211.143554688 3.267578125 184.282226562 -7.8623046875 156.26953125 -7.8623046875 c 0
 128.2578125 -7.8623046875 101.396484375 3.267578125 81.58984375 23.0732421875 c 0
 61.7841796875 42.8798828125 50.654296875 69.7412109375 50.654296875 97.7529296875 c 0
 50.654296875 125.765625 61.7841796875 152.626953125 81.58984375 172.432617188 c 0
 101.396484375 192.23828125 128.2578125 203.368164062 156.26953125 203.368164062 c 0
 184.282226562 203.368164062 211.143554688 192.23828125 230.94921875 172.432617188 c 0
 250.755859375 152.626953125 261.884765625 125.765625 261.884765625 97.7529296875 c 0
86.4013671875 103.577148438 m 1
 287.572265625 103.577148438 l 1
 206.01953125 -102.791015625 l 1
 24.966796875 -102.791015625 l 1
 86.4013671875 103.577148438 l 1
EndSplineSet
EndChar

StartChar: less
Encoding: 60 60 28
Width: 620
Flags: HW
LayerCount: 2
Fore
SplineSet
24.966796875 186.124023438 m 1
 24.966796875 351.219726562 l 1
 611.055664062 627.217773438 l 1
 611.055664062 426.046875 l 1
 24.966796875 186.124023438 l 1
24.966796875 186.124023438 m 1
 24.966796875 351.219726562 l 1
 611.055664062 111.296875 l 1
 611.055664062 -89.8740234375 l 1
 24.966796875 186.124023438 l 1
EndSplineSet
EndChar

StartChar: equal
Encoding: 61 61 29
Width: 665
Flags: HW
LayerCount: 2
Fore
SplineSet
66.240234375 351.219726562 m 1
 66.240234375 516.315429688 l 1
 615.184570312 516.315429688 l 1
 615.184570312 351.219726562 l 1
 66.240234375 351.219726562 l 1
615.184570312 186.124023438 m 1
 615.184570312 21.0283203125 l 1
 66.240234375 21.0283203125 l 1
 66.240234375 186.124023438 l 1
 615.184570312 186.124023438 l 1
EndSplineSet
EndChar

StartChar: greater
Encoding: 62 62 30
Width: 620
Flags: HW
LayerCount: 2
Fore
SplineSet
611.055664062 186.124023438 m 1
 24.966796875 426.046875 l 1
 24.966796875 627.217773438 l 1
 611.055664062 351.219726562 l 1
 611.055664062 186.124023438 l 1
611.055664062 186.124023438 m 1
 24.966796875 -89.8740234375 l 1
 24.966796875 111.296875 l 1
 611.055664062 351.219726562 l 1
 611.055664062 186.124023438 l 1
EndSplineSet
EndChar

StartChar: question
Encoding: 63 63 31
Width: 570
Flags: HW
LayerCount: 2
Fore
SplineSet
12.7783203125 589.458007812 m 1
 87.224609375 679.086914062 197.696289062 730.9375 314.2109375 730.9375 c 0
 464.940429688 730.9375 581.716796875 675.842773438 581.716796875 539.939453125 c 0
 581.716796875 417.732421875 431.05078125 426.998046875 387.278320312 325.420898438 c 0
 375.573242188 298.2578125 373.874023438 268.28515625 373.874023438 238.75 c 1
 172.703125 238.75 l 1
 172.703125 245.98046875 293.109375 402.733398438 358.610351562 488.0078125 c 0
 370.384765625 503.3359375 380.545898438 520.610351562 380.545898438 539.939453125 c 0
 380.545898438 569.592773438 348.405273438 565.841796875 314.2109375 565.841796875 c 0
 251.4296875 565.841796875 191.381835938 540.16015625 148.017578125 494.762695312 c 1
 12.7783203125 589.458007812 l 1
378.903320312 97.7529296875 m 0
 378.903320312 69.7412109375 367.774414062 42.8798828125 347.96875 23.0732421875 c 0
 328.162109375 3.267578125 301.30078125 -7.8623046875 273.2890625 -7.8623046875 c 0
 245.276367188 -7.8623046875 218.415039062 3.267578125 198.609375 23.0732421875 c 0
 178.802734375 42.8798828125 167.673828125 69.7412109375 167.673828125 97.7529296875 c 0
 167.673828125 125.765625 178.802734375 152.626953125 198.609375 172.432617188 c 0
 218.415039062 192.23828125 245.276367188 203.368164062 273.2890625 203.368164062 c 0
 301.30078125 203.368164062 328.162109375 192.23828125 347.96875 172.432617188 c 0
 367.774414062 152.626953125 378.903320312 125.765625 378.903320312 97.7529296875 c 0
EndSplineSet
EndChar

StartChar: at
Encoding: 64 64 32
Width: 970
Flags: HW
LayerCount: 2
Fore
SplineSet
845.208984375 109.087890625 m 1
 845.208984375 -43.125 l 1
 730.952148438 -68.4169921875 614.278320312 -81.1767578125 497.254882812 -81.1767578125 c 0
 215.10546875 -81.1767578125 23.0185546875 74.373046875 23.0185546875 346.91796875 c 0
 23.0185546875 619.462890625 215.10546875 775.012695312 497.254882812 775.012695312 c 0
 771.258789062 775.012695312 971.491210938 648.911132812 971.491210938 393.76953125 c 0
 971.491210938 293.825195312 912.08984375 203.44140625 820.346679688 163.79296875 c 1
 713.401367188 146.556640625 l 1
 540.841796875 214.274414062 l 1
 641.63671875 328.331054688 l 1
 744.240234375 295.612304688 l 1
 770.93359375 321.290039062 786.018554688 356.731445312 786.018554688 393.76953125 c 0
 786.018554688 548.034179688 663.584960938 622.80078125 497.254882812 622.80078125 c 0
 322.596679688 622.80078125 208.491210938 518.87890625 208.491210938 346.91796875 c 0
 208.491210938 174.95703125 322.596679688 71.03515625 497.254882812 71.03515625 c 0
 614.278320312 71.03515625 730.952148438 83.794921875 845.208984375 109.087890625 c 1
641.63671875 542.638671875 m 1
 793.848632812 542.638671875 l 1
 693.053710938 214.274414062 l 1
 540.841796875 214.274414062 l 1
 641.63671875 542.638671875 l 1
591.239257812 378.456054688 m 1
 652.352539062 465.735351562 l 1
 616.91015625 516.321289062 559.024414062 546.444335938 497.256835938 546.444335938 c 0
 184.809570312 546.444335938 0.1865234375 333.8046875 0.1865234375 13.955078125 c 0
 0.1865234375 -386.249023438 311.7578125 146.556640625 497.256835938 146.556640625 c 0
 592.670898438 146.556640625 663.232421875 235.392578125 641.63671875 328.331054688 c 1
 665.703125 432.125 l 1
 647.283203125 353.982421875 577.541015625 298.768554688 497.256835938 298.768554688 c 0
 332.80078125 298.768554688 0.1865234375 -598.557617188 0.1865234375 13.955078125 c 0
 0.1865234375 274.7109375 213.203125 394.231445312 497.256835938 394.231445312 c 0
 529.243164062 394.231445312 561.005859375 388.900390625 591.239257812 378.456054688 c 1
EndSplineSet
EndChar

StartChar: A
Encoding: 65 65 33
Width: 687
Flags: HW
LayerCount: 2
Fore
SplineSet
352.0625 722.682617188 m 1
 452.6484375 722.682617188 l 1
 687.413085938 0.392578125 l 1
 486.2421875 0.392578125 l 1
 301.76953125 722.682617188 l 1
 352.0625 722.682617188 l 1
251.477539062 722.682617188 m 1
 402.35546875 722.682617188 l 1
 169.106445312 0.392578125 l 1
 16.7119140625 0.392578125 l 1
 251.477539062 722.682617188 l 1
167.336914062 287.248046875 m 1
 536.788085938 287.248046875 l 1
 536.788085938 146.916015625 l 1
 167.336914062 146.916015625 l 1
 167.336914062 287.248046875 l 1
EndSplineSet
EndChar

StartChar: B
Encoding: 66 66 34
Width: 676
Flags: HW
LayerCount: 2
Fore
SplineSet
87.3564453125 722.682617188 m 1
 87.3564453125 557.586914062 l 1
 15.1279296875 557.586914062 l 1
 15.1279296875 722.682617188 l 1
 87.3564453125 722.682617188 l 1
87.3564453125 0.392578125 m 1
 15.1279296875 0.392578125 l 1
 15.1279296875 165.48828125 l 1
 87.3564453125 165.48828125 l 1
 87.3564453125 0.392578125 l 1
87.3564453125 722.682617188 m 1
 367.502929688 722.682617188 l 2
 519.234375 722.682617188 634.0625 661.088867188 634.0625 522.505859375 c 0
 634.0625 385.267578125 518.586914062 326.452148438 367.502929688 326.452148438 c 1
 87.3564453125 384.235351562 l 1
 87.3564453125 442.018554688 l 1
 367.502929688 442.018554688 l 2
 406.181640625 442.018554688 432.891601562 462.702148438 432.891601562 499.802734375 c 0
 432.891601562 536.903320312 406.181640625 557.586914062 367.502929688 557.586914062 c 2
 87.3564453125 557.586914062 l 1
 87.3564453125 722.682617188 l 1
87.3564453125 384.235351562 m 1
 367.502929688 384.235351562 l 2
 531.633789062 384.235351562 668.682617188 349.53125 668.682617188 206.76171875 c 0
 668.682617188 56.3779296875 535.888671875 0.392578125 367.502929688 0.392578125 c 2
 87.3564453125 0.392578125 l 1
 187.94140625 165.48828125 l 1
 367.502929688 165.48828125 l 2
 425.299804688 165.48828125 467.51171875 192.135742188 467.51171875 245.970703125 c 0
 467.51171875 299.8046875 425.299804688 326.452148438 367.502929688 326.452148438 c 2
 87.3564453125 326.452148438 l 1
 87.3564453125 384.235351562 l 1
87.3564453125 722.682617188 m 1
 288.52734375 722.682617188 l 1
 288.52734375 0.392578125 l 1
 87.3564453125 0.392578125 l 1
 87.3564453125 722.682617188 l 1
EndSplineSet
EndChar

StartChar: C
Encoding: 67 67 35
Width: 670
Flags: HW
LayerCount: 2
Fore
SplineSet
564.341796875 500.954101562 m 1
 519.185546875 542.672851562 459.965820312 565.841796875 398.487304688 565.841796875 c 0
 285.642578125 565.841796875 226.137695312 480.94921875 226.137695312 361.538085938 c 0
 226.137695312 242.126953125 285.642578125 157.233398438 398.487304688 157.233398438 c 0
 468.134765625 157.233398438 516.30859375 177.87890625 564.341796875 228.3125 c 1
 699.580078125 133.618164062 l 1
 625.2734375 43.998046875 514.905273438 -7.8623046875 398.487304688 -7.8623046875 c 0
 170.102539062 -7.8623046875 24.966796875 134.017578125 24.966796875 361.538085938 c 0
 24.966796875 589.05859375 170.102539062 730.9375 398.487304688 730.9375 c 0
 526.360351562 730.9375 614.666992188 691.259765625 699.580078125 595.649414062 c 1
 564.341796875 500.954101562 l 1
699.580078125 595.649414062 m 1
 699.580078125 492.46484375 l 1
 534.485351562 492.46484375 l 1
 534.485351562 595.649414062 l 1
 699.580078125 595.649414062 l 1
EndSplineSet
EndChar

StartChar: D
Encoding: 68 68 36
Width: 687
Flags: HW
LayerCount: 2
Fore
SplineSet
87.3564453125 557.586914062 m 1
 87.3564453125 722.682617188 l 1
 337.990234375 722.682617188 l 2
 561.499023438 722.682617188 708.529296875 591.23828125 708.529296875 371.853515625 c 0
 708.529296875 144.091796875 565.559570312 0.392578125 337.990234375 0.392578125 c 2
 87.3564453125 0.392578125 l 1
 87.3564453125 165.48828125 l 1
 337.990234375 165.48828125 l 2
 450.252929688 165.48828125 507.358398438 252.041015625 507.358398438 371.853515625 c 0
 507.358398438 482.669921875 445.395507812 557.586914062 337.990234375 557.586914062 c 2
 87.3564453125 557.586914062 l 1
87.3564453125 722.682617188 m 1
 288.52734375 722.682617188 l 1
 288.52734375 0.392578125 l 1
 87.3564453125 0.392578125 l 1
 87.3564453125 722.682617188 l 1
87.3564453125 722.682617188 m 1
 87.3564453125 557.586914062 l 1
 15.1279296875 557.586914062 l 1
 15.1279296875 722.682617188 l 1
 87.3564453125 722.682617188 l 1
87.3564453125 0.392578125 m 1
 15.1279296875 0.392578125 l 1
 15.1279296875 165.48828125 l 1
 87.3564453125 165.48828125 l 1
 87.3564453125 0.392578125 l 1
EndSplineSet
EndChar

StartChar: E
Encoding: 69 69 37
Width: 609
Flags: HW
LayerCount: 2
Fore
SplineSet
87.3564453125 722.682617188 m 1
 288.52734375 722.682617188 l 1
 288.52734375 0.392578125 l 1
 87.3564453125 0.392578125 l 1
 87.3564453125 722.682617188 l 1
187.94140625 557.586914062 m 1
 187.94140625 722.682617188 l 1
 583.15625 722.682617188 l 1
 583.15625 557.586914062 l 1
 187.94140625 557.586914062 l 1
187.94140625 278.990234375 m 1
 187.94140625 444.0859375 l 1
 520.725585938 444.0859375 l 1
 520.725585938 278.990234375 l 1
 187.94140625 278.990234375 l 1
187.94140625 0.392578125 m 1
 187.94140625 165.48828125 l 1
 614.37109375 165.48828125 l 1
 614.37109375 0.392578125 l 1
 187.94140625 0.392578125 l 1
87.3564453125 722.682617188 m 1
 87.3564453125 557.586914062 l 1
 15.1279296875 557.586914062 l 1
 15.1279296875 722.682617188 l 1
 87.3564453125 722.682617188 l 1
87.3564453125 0.392578125 m 1
 15.1279296875 0.392578125 l 1
 15.1279296875 165.48828125 l 1
 87.3564453125 165.48828125 l 1
 87.3564453125 0.392578125 l 1
583.15625 557.586914062 m 1
 583.15625 485.358398438 l 1
 418.060546875 485.358398438 l 1
 418.060546875 557.586914062 l 1
 583.15625 557.586914062 l 1
614.37109375 165.48828125 m 1
 449.275390625 165.48828125 l 1
 449.275390625 237.716796875 l 1
 614.37109375 237.716796875 l 1
 614.37109375 165.48828125 l 1
EndSplineSet
EndChar

StartChar: F
Encoding: 70 70 38
Width: 604
Flags: HW
LayerCount: 2
Fore
SplineSet
87.3564453125 722.682617188 m 1
 87.3564453125 557.586914062 l 1
 15.1279296875 557.586914062 l 1
 15.1279296875 722.682617188 l 1
 87.3564453125 722.682617188 l 1
87.3564453125 0.392578125 m 1
 15.1279296875 0.392578125 l 1
 15.1279296875 165.48828125 l 1
 87.3564453125 165.48828125 l 1
 87.3564453125 0.392578125 l 1
288.52734375 0.392578125 m 1
 288.52734375 165.48828125 l 1
 360.755859375 165.48828125 l 1
 360.755859375 0.392578125 l 1
 288.52734375 0.392578125 l 1
578.047851562 557.586914062 m 1
 578.047851562 485.358398438 l 1
 412.952148438 485.358398438 l 1
 412.952148438 557.586914062 l 1
 578.047851562 557.586914062 l 1
87.3564453125 722.682617188 m 1
 288.52734375 722.682617188 l 1
 288.52734375 0.392578125 l 1
 87.3564453125 0.392578125 l 1
 87.3564453125 722.682617188 l 1
187.94140625 557.586914062 m 1
 187.94140625 722.682617188 l 1
 578.047851562 722.682617188 l 1
 578.047851562 557.586914062 l 1
 187.94140625 557.586914062 l 1
187.94140625 278.990234375 m 1
 187.94140625 444.0859375 l 1
 516.184570312 444.0859375 l 1
 516.184570312 278.990234375 l 1
 187.94140625 278.990234375 l 1
EndSplineSet
EndChar

StartChar: G
Encoding: 71 71 39
Width: 720
Flags: HW
LayerCount: 2
Fore
SplineSet
713.208984375 597.712890625 m 1
 713.208984375 494.528320312 l 1
 548.11328125 494.528320312 l 1
 548.11328125 597.712890625 l 1
 713.208984375 597.712890625 l 1
577.970703125 503.017578125 m 1
 529.844726562 543.58984375 468.924804688 565.841796875 405.978515625 565.841796875 c 0
 290.326171875 565.841796875 226.137695312 482.26171875 226.137695312 361.538085938 c 0
 226.137695312 244.370117188 292.19140625 165.48828125 405.978515625 165.48828125 c 0
 508.4375 165.48828125 610.879882812 168.068359375 713.208984375 173.2265625 c 1
 713.208984375 8.1318359375 l 1
 610.879882812 2.9736328125 508.4375 0.392578125 405.978515625 0.392578125 c 0
 176.077148438 0.392578125 24.966796875 135.79296875 24.966796875 361.538085938 c 0
 24.966796875 590.60546875 174.478515625 730.9375 405.978515625 730.9375 c 0
 522.408203125 730.9375 633.635742188 682.706054688 713.208984375 597.712890625 c 1
 577.970703125 503.017578125 l 1
512.038085938 8.1318359375 m 1
 512.038085938 361.538085938 l 1
 713.208984375 361.538085938 l 1
 713.208984375 8.1318359375 l 1
 512.038085938 8.1318359375 l 1
713.208984375 444.0859375 m 1
 713.208984375 278.990234375 l 1
 369.087890625 278.990234375 l 1
 369.087890625 444.0859375 l 1
 713.208984375 444.0859375 l 1
EndSplineSet
EndChar

StartChar: H
Encoding: 72 72 40
Width: 676
Flags: HW
LayerCount: 2
Fore
SplineSet
87.3564453125 722.682617188 m 1
 87.3564453125 557.586914062 l 1
 15.1279296875 557.586914062 l 1
 15.1279296875 722.682617188 l 1
 87.3564453125 722.682617188 l 1
288.52734375 722.682617188 m 1
 360.755859375 722.682617188 l 1
 360.755859375 557.586914062 l 1
 288.52734375 557.586914062 l 1
 288.52734375 722.682617188 l 1
446.479492188 722.682617188 m 1
 446.479492188 557.586914062 l 1
 374.250976562 557.586914062 l 1
 374.250976562 722.682617188 l 1
 446.479492188 722.682617188 l 1
647.650390625 722.682617188 m 1
 719.87890625 722.682617188 l 1
 719.87890625 557.586914062 l 1
 647.650390625 557.586914062 l 1
 647.650390625 722.682617188 l 1
87.3564453125 0.392578125 m 1
 15.1279296875 0.392578125 l 1
 15.1279296875 165.48828125 l 1
 87.3564453125 165.48828125 l 1
 87.3564453125 0.392578125 l 1
288.52734375 0.392578125 m 1
 288.52734375 165.48828125 l 1
 360.755859375 165.48828125 l 1
 360.755859375 0.392578125 l 1
 288.52734375 0.392578125 l 1
446.479492188 0.392578125 m 1
 374.250976562 0.392578125 l 1
 374.250976562 165.48828125 l 1
 446.479492188 165.48828125 l 1
 446.479492188 0.392578125 l 1
647.650390625 0.392578125 m 1
 647.650390625 165.48828125 l 1
 719.87890625 165.48828125 l 1
 719.87890625 0.392578125 l 1
 647.650390625 0.392578125 l 1
87.3564453125 722.682617188 m 1
 288.52734375 722.682617188 l 1
 288.52734375 0.392578125 l 1
 87.3564453125 0.392578125 l 1
 87.3564453125 722.682617188 l 1
446.479492188 0.392578125 m 1
 446.479492188 722.682617188 l 1
 647.650390625 722.682617188 l 1
 647.650390625 0.392578125 l 1
 446.479492188 0.392578125 l 1
187.94140625 315.106445312 m 1
 187.94140625 480.202148438 l 1
 547.065429688 480.202148438 l 1
 547.065429688 315.106445312 l 1
 187.94140625 315.106445312 l 1
EndSplineSet
EndChar

StartChar: I
Encoding: 73 73 41
Width: 254
Flags: HW
LayerCount: 2
Fore
SplineSet
87.3564453125 722.682617188 m 1
 87.3564453125 557.586914062 l 1
 15.1279296875 557.586914062 l 1
 15.1279296875 722.682617188 l 1
 87.3564453125 722.682617188 l 1
288.52734375 722.682617188 m 1
 360.755859375 722.682617188 l 1
 360.755859375 557.586914062 l 1
 288.52734375 557.586914062 l 1
 288.52734375 722.682617188 l 1
87.3564453125 0.392578125 m 1
 15.1279296875 0.392578125 l 1
 15.1279296875 165.48828125 l 1
 87.3564453125 165.48828125 l 1
 87.3564453125 0.392578125 l 1
288.52734375 0.392578125 m 1
 288.52734375 165.48828125 l 1
 360.755859375 165.48828125 l 1
 360.755859375 0.392578125 l 1
 288.52734375 0.392578125 l 1
87.3564453125 722.682617188 m 1
 288.52734375 722.682617188 l 1
 288.52734375 0.392578125 l 1
 87.3564453125 0.392578125 l 1
 87.3564453125 722.682617188 l 1
EndSplineSet
EndChar

StartChar: J
Encoding: 74 74 42
Width: 532
Flags: HW
LayerCount: 2
Fore
SplineSet
303.520507812 722.682617188 m 1
 303.520507812 557.586914062 l 1
 231.291015625 557.586914062 l 1
 231.291015625 722.682617188 l 1
 303.520507812 722.682617188 l 1
303.520507812 722.682617188 m 1
 504.69140625 722.682617188 l 1
 504.69140625 253.19921875 l 2
 504.69140625 94.662109375 408.7890625 -7.8623046875 252.0078125 -7.8623046875 c 0
 154.026367188 -7.8623046875 86.0302734375 17.978515625 12.7783203125 83.0517578125 c 1
 148.017578125 177.747070312 l 1
 177.876953125 145.663085938 208.178710938 132.469726562 252.0078125 132.469726562 c 0
 306.189453125 132.469726562 303.520507812 190.2890625 303.520507812 253.19921875 c 2
 303.520507812 722.682617188 l 1
EndSplineSet
EndChar

StartChar: K
Encoding: 75 75 43
Width: 642
Flags: HW
LayerCount: 2
Fore
SplineSet
66.240234375 722.682617188 m 1
 267.411132812 722.682617188 l 1
 267.411132812 0.392578125 l 1
 66.240234375 0.392578125 l 1
 66.240234375 722.682617188 l 1
428.584960938 722.682617188 m 1
 690.969726562 722.682617188 l 1
 468.58203125 361.538085938 l 1
 690.969726562 0.392578125 l 1
 428.584960938 0.392578125 l 1
 267.411132812 361.538085938 l 1
 428.584960938 722.682617188 l 1
EndSplineSet
EndChar

StartChar: L
Encoding: 76 76 44
Width: 576
Flags: HW
LayerCount: 2
Fore
SplineSet
87.3564453125 722.682617188 m 1
 87.3564453125 557.586914062 l 1
 15.1279296875 557.586914062 l 1
 15.1279296875 722.682617188 l 1
 87.3564453125 722.682617188 l 1
288.52734375 722.682617188 m 1
 360.755859375 722.682617188 l 1
 360.755859375 557.586914062 l 1
 288.52734375 557.586914062 l 1
 288.52734375 722.682617188 l 1
87.3564453125 0.392578125 m 1
 15.1279296875 0.392578125 l 1
 15.1279296875 165.48828125 l 1
 87.3564453125 165.48828125 l 1
 87.3564453125 0.392578125 l 1
564.317382812 165.48828125 m 1
 399.221679688 165.48828125 l 1
 399.221679688 237.716796875 l 1
 564.317382812 237.716796875 l 1
 564.317382812 165.48828125 l 1
87.3564453125 722.682617188 m 1
 288.52734375 722.682617188 l 1
 288.52734375 0.392578125 l 1
 87.3564453125 0.392578125 l 1
 87.3564453125 722.682617188 l 1
187.94140625 0.392578125 m 1
 187.94140625 165.48828125 l 1
 564.317382812 165.48828125 l 1
 564.317382812 0.392578125 l 1
 187.94140625 0.392578125 l 1
EndSplineSet
EndChar

StartChar: M
Encoding: 77 77 45
Width: 831
Flags: HW
LayerCount: 2
Fore
SplineSet
66.240234375 722.682617188 m 1
 267.411132812 722.682617188 l 1
 267.411132812 0.392578125 l 1
 66.240234375 0.392578125 l 1
 66.240234375 722.682617188 l 1
584.268554688 722.682617188 m 1
 785.439453125 722.682617188 l 1
 785.439453125 0.392578125 l 1
 584.268554688 0.392578125 l 1
 584.268554688 722.682617188 l 1
102.315429688 722.682617188 m 1
 267.411132812 722.682617188 l 1
 508.387695312 159.297851562 l 1
 343.291992188 159.297851562 l 1
 102.315429688 722.682617188 l 1
584.268554688 722.682617188 m 1
 749.364257812 722.682617188 l 1
 508.387695312 159.297851562 l 1
 343.291992188 159.297851562 l 1
 584.268554688 722.682617188 l 1
EndSplineSet
EndChar

StartChar: N
Encoding: 78 78 46
Width: 709
Flags: HW
LayerCount: 2
Fore
SplineSet
87.3564453125 722.682617188 m 1
 87.3564453125 557.586914062 l 1
 15.1279296875 557.586914062 l 1
 15.1279296875 722.682617188 l 1
 87.3564453125 722.682617188 l 1
681.701171875 722.682617188 m 1
 753.930664062 722.682617188 l 1
 753.930664062 557.586914062 l 1
 681.701171875 557.586914062 l 1
 681.701171875 722.682617188 l 1
87.3564453125 0.392578125 m 1
 15.1279296875 0.392578125 l 1
 15.1279296875 165.48828125 l 1
 87.3564453125 165.48828125 l 1
 87.3564453125 0.392578125 l 1
681.701171875 0.392578125 m 1
 681.701171875 165.48828125 l 1
 753.930664062 165.48828125 l 1
 753.930664062 0.392578125 l 1
 681.701171875 0.392578125 l 1
87.3564453125 722.682617188 m 1
 288.52734375 722.682617188 l 1
 288.52734375 0.392578125 l 1
 87.3564453125 0.392578125 l 1
 87.3564453125 722.682617188 l 1
480.530273438 722.682617188 m 1
 681.701171875 722.682617188 l 1
 681.701171875 0.392578125 l 1
 480.530273438 0.392578125 l 1
 480.530273438 722.682617188 l 1
87.3564453125 722.682617188 m 1
 288.52734375 722.682617188 l 1
 645.625976562 0.392578125 l 1
 480.530273438 0.392578125 l 1
 87.3564453125 722.682617188 l 1
EndSplineSet
EndChar

StartChar: O
Encoding: 79 79 47
Width: 731
Flags: HW
LayerCount: 2
Fore
SplineSet
374.763671875 730.9375 m 1
 593.491210938 730.9375 724.559570312 584.368164062 724.559570312 361.538085938 c 0
 724.559570312 138.708007812 593.491210938 -7.8623046875 374.763671875 -7.8623046875 c 0
 156.03515625 -7.8623046875 24.966796875 138.708007812 24.966796875 361.538085938 c 0
 24.966796875 584.368164062 156.03515625 730.9375 374.763671875 730.9375 c 1
 374.763671875 565.841796875 l 1
 270.102539062 565.841796875 226.137695312 477.080078125 226.137695312 361.538085938 c 0
 226.137695312 245.995117188 270.102539062 157.233398438 374.763671875 157.233398438 c 0
 479.423828125 157.233398438 523.388671875 245.995117188 523.388671875 361.538085938 c 0
 523.388671875 477.080078125 479.423828125 565.841796875 374.763671875 565.841796875 c 1
 374.763671875 730.9375 l 1
EndSplineSet
EndChar

StartChar: P
Encoding: 80 80 48
Width: 665
Flags: HW
LayerCount: 2
Fore
SplineSet
87.3564453125 722.682617188 m 1
 87.3564453125 557.586914062 l 1
 15.1279296875 557.586914062 l 1
 15.1279296875 722.682617188 l 1
 87.3564453125 722.682617188 l 1
87.3564453125 0.392578125 m 1
 15.1279296875 0.392578125 l 1
 15.1279296875 165.48828125 l 1
 87.3564453125 165.48828125 l 1
 87.3564453125 0.392578125 l 1
288.52734375 0.392578125 m 1
 288.52734375 165.48828125 l 1
 360.755859375 165.48828125 l 1
 360.755859375 0.392578125 l 1
 288.52734375 0.392578125 l 1
87.3564453125 722.682617188 m 1
 288.52734375 722.682617188 l 1
 288.52734375 0.392578125 l 1
 87.3564453125 0.392578125 l 1
 87.3564453125 722.682617188 l 1
187.94140625 722.682617188 m 1
 368.634765625 722.682617188 l 2
 547.873046875 722.682617188 677.573242188 637.674804688 677.573242188 469.8828125 c 0
 677.573242188 302.08984375 547.873046875 217.08203125 368.634765625 217.08203125 c 2
 187.94140625 217.08203125 l 1
 187.94140625 382.177734375 l 1
 368.634765625 382.177734375 l 2
 431.078125 382.177734375 476.40234375 411.522460938 476.40234375 469.8828125 c 0
 476.40234375 528.2421875 431.078125 557.586914062 368.634765625 557.586914062 c 2
 187.94140625 557.586914062 l 1
 187.94140625 722.682617188 l 1
EndSplineSet
EndChar

StartChar: Q
Encoding: 81 81 49
Width: 730
Flags: HW
LayerCount: 2
Fore
SplineSet
374.001953125 731.078125 m 1
 592.28515625 731.078125 723.086914062 584.805664062 723.086914062 362.428710938 c 0
 723.086914062 140.051757812 592.28515625 -6.220703125 374.001953125 -6.220703125 c 0
 155.717773438 -6.220703125 24.916015625 140.051757812 24.916015625 362.428710938 c 0
 24.916015625 584.805664062 155.717773438 731.078125 374.001953125 731.078125 c 1
 374.001953125 566.318359375 l 1
 269.553710938 566.318359375 225.678710938 477.736328125 225.678710938 362.428710938 c 0
 225.678710938 247.12109375 269.553710938 158.540039062 374.001953125 158.540039062 c 0
 478.450195312 158.540039062 522.325195312 247.12109375 522.325195312 362.428710938 c 0
 522.325195312 477.736328125 478.450195312 566.318359375 374.001953125 566.318359375 c 1
 374.001953125 731.078125 l 1
474.3828125 2.017578125 m 1
 474.3828125 -30.9248046875 528.3984375 -30.93359375 573.569335938 -30.93359375 c 2
 622.706054688 -30.93359375 l 1
 622.706054688 -195.693359375 l 1
 573.569335938 -195.693359375 l 2
 423.694335938 -195.693359375 273.62109375 -130.755859375 273.62109375 2.017578125 c 1
 474.3828125 2.017578125 l 1
EndSplineSet
EndChar

StartChar: R
Encoding: 82 82 50
Width: 665
Flags: HW
LayerCount: 2
Fore
SplineSet
87.3564453125 722.682617188 m 1
 87.3564453125 557.586914062 l 1
 15.1279296875 557.586914062 l 1
 15.1279296875 722.682617188 l 1
 87.3564453125 722.682617188 l 1
87.3564453125 0.392578125 m 1
 15.1279296875 0.392578125 l 1
 15.1279296875 165.48828125 l 1
 87.3564453125 165.48828125 l 1
 87.3564453125 0.392578125 l 1
87.3564453125 722.682617188 m 1
 288.52734375 722.682617188 l 1
 288.52734375 0.392578125 l 1
 87.3564453125 0.392578125 l 1
 87.3564453125 722.682617188 l 1
187.94140625 722.682617188 m 1
 395.880859375 722.682617188 l 2
 562.553710938 722.682617188 677.573242188 633.420898438 677.573242188 473.4921875 c 0
 677.573242188 313.563476562 562.553710938 224.30078125 395.880859375 224.30078125 c 2
 187.94140625 224.30078125 l 1
 187.94140625 389.396484375 l 1
 395.880859375 389.396484375 l 2
 446.032226562 389.396484375 476.40234375 422.592773438 476.40234375 473.4921875 c 0
 476.40234375 524.390625 446.032226562 557.586914062 395.880859375 557.586914062 c 2
 187.94140625 557.586914062 l 1
 187.94140625 722.682617188 l 1
496.466796875 306.848632812 m 1
 677.573242188 0.392578125 l 1
 476.40234375 0.392578125 l 1
 295.295898438 306.848632812 l 1
 496.466796875 306.848632812 l 1
EndSplineSet
EndChar

StartChar: S
Encoding: 83 83 51
Width: 642
Flags: HW
LayerCount: 2
Fore
SplineSet
640.528320312 589.458007812 m 1
 640.528320312 486.2734375 l 1
 475.43359375 486.2734375 l 1
 475.43359375 589.458007812 l 1
 640.528320312 589.458007812 l 1
15.1279296875 133.618164062 m 1
 15.1279296875 236.801757812 l 1
 180.22265625 236.801757812 l 1
 180.22265625 133.618164062 l 1
 15.1279296875 133.618164062 l 1
350.866210938 730.9375 m 0
 464.064453125 730.9375 570.9375 678.737304688 640.528320312 589.458007812 c 1
 505.290039062 494.762695312 l 1
 468.408203125 542.703125 411.352539062 570.794921875 350.866210938 570.794921875 c 0
 298.193359375 570.794921875 241.063476562 560.40625 241.063476562 515.14453125 c 0
 241.063476562 483.7109375 259.606445312 463.905273438 290.991210938 459.494140625 c 2
 421.381835938 441.168945312 l 2
 558.161132812 421.9453125 648.681640625 347.677734375 648.681640625 214.53515625 c 0
 648.681640625 56.4345703125 512.985351562 -7.8623046875 337.70703125 -7.8623046875 c 0
 215.1328125 -7.8623046875 98.1533203125 43.443359375 15.1279296875 133.618164062 c 1
 150.366210938 228.3125 l 1
 202.02734375 182.51953125 268.671875 157.233398438 337.70703125 157.233398438 c 0
 396.473632812 157.233398438 447.510742188 163.97265625 447.510742188 214.53515625 c 0
 447.510742188 246.609375 429.364257812 267.370117188 397.583007812 271.836914062 c 2
 267.192382812 290.162109375 l 2
 130.7734375 309.334960938 39.892578125 382.592773438 39.892578125 515.14453125 c 0
 39.892578125 671.225585938 176.595703125 730.9375 350.866210938 730.9375 c 0
EndSplineSet
EndChar

StartChar: T
Encoding: 84 84 52
Width: 676
Flags: HW
LayerCount: 2
Fore
SplineSet
69.443359375 557.586914062 m 1
 234.5390625 557.586914062 l 1
 234.5390625 485.358398438 l 1
 69.443359375 485.358398438 l 1
 69.443359375 557.586914062 l 1
623.331054688 557.586914062 m 1
 623.331054688 485.358398438 l 1
 458.236328125 485.358398438 l 1
 458.236328125 557.586914062 l 1
 623.331054688 557.586914062 l 1
245.801757812 0.392578125 m 1
 173.573242188 0.392578125 l 1
 173.573242188 165.48828125 l 1
 245.801757812 165.48828125 l 1
 245.801757812 0.392578125 l 1
446.97265625 0.392578125 m 1
 446.97265625 165.48828125 l 1
 519.201171875 165.48828125 l 1
 519.201171875 0.392578125 l 1
 446.97265625 0.392578125 l 1
69.443359375 557.586914062 m 1
 69.443359375 722.682617188 l 1
 623.331054688 722.682617188 l 1
 623.331054688 557.586914062 l 1
 69.443359375 557.586914062 l 1
245.801757812 640.134765625 m 1
 446.97265625 640.134765625 l 1
 446.97265625 0.392578125 l 1
 245.801757812 0.392578125 l 1
 245.801757812 640.134765625 l 1
EndSplineSet
EndChar

StartChar: U
Encoding: 85 85 53
Width: 703
Flags: HW
LayerCount: 2
Fore
SplineSet
87.3564453125 722.682617188 m 1
 87.3564453125 557.586914062 l 1
 15.1279296875 557.586914062 l 1
 15.1279296875 722.682617188 l 1
 87.3564453125 722.682617188 l 1
288.52734375 722.682617188 m 1
 360.755859375 722.682617188 l 1
 360.755859375 557.586914062 l 1
 288.52734375 557.586914062 l 1
 288.52734375 722.682617188 l 1
523.6328125 722.682617188 m 1
 523.6328125 557.586914062 l 1
 451.404296875 557.586914062 l 1
 451.404296875 722.682617188 l 1
 523.6328125 722.682617188 l 1
676.02734375 722.682617188 m 1
 748.255859375 722.682617188 l 1
 748.255859375 557.586914062 l 1
 676.02734375 557.586914062 l 1
 676.02734375 722.682617188 l 1
87.3564453125 722.682617188 m 1
 288.52734375 722.682617188 l 1
 288.52734375 294.728515625 l 2
 288.52734375 218.014648438 313.344726562 157.233398438 381.69140625 157.233398438 c 0
 467.91015625 157.233398438 523.6328125 209.44140625 523.6328125 294.728515625 c 2
 523.6328125 722.682617188 l 1
 676.02734375 722.682617188 l 1
 676.02734375 294.728515625 l 2
 676.02734375 110.686523438 564.002929688 -7.8623046875 381.69140625 -7.8623046875 c 0
 199.379882812 -7.8623046875 87.3564453125 110.686523438 87.3564453125 294.728515625 c 2
 87.3564453125 722.682617188 l 1
EndSplineSet
EndChar

StartChar: V
Encoding: 86 86 54
Width: 726
Flags: HW
LayerCount: 2
Fore
SplineSet
33.2216796875 722.682617188 m 1
 234.392578125 722.682617188 l 1
 412.16015625 0.392578125 l 1
 271.340820312 0.392578125 l 1
 33.2216796875 722.682617188 l 1
558.236328125 722.682617188 m 1
 710.630859375 722.682617188 l 1
 472.51171875 0.392578125 l 1
 331.692382812 0.392578125 l 1
 558.236328125 722.682617188 l 1
EndSplineSet
EndChar

StartChar: W
Encoding: 87 87 55
Width: 908
Flags: HW
LayerCount: 2
Fore
SplineSet
33.2216796875 722.682617188 m 1
 214.2734375 722.682617188 l 1
 309.981445312 217.08203125 l 1
 310.765625 0.392578125 l 1
 169.946289062 0.392578125 l 1
 128.928710938 217.08203125 l 1
 33.2216796875 722.682617188 l 1
210.1796875 0.392578125 m 1
 251.982421875 289.3046875 l 1
 293.00390625 433.771484375 l 1
 375.040039062 722.682617188 l 1
 515.858398438 722.682617188 l 1
 474.056640625 433.771484375 l 1
 433.03515625 289.3046875 l 1
 350.999023438 0.392578125 l 1
 210.1796875 0.392578125 l 1
415.2734375 722.682617188 m 1
 556.091796875 722.682617188 l 1
 638.127929688 433.771484375 l 1
 679.149414062 289.3046875 l 1
 720.952148438 0.392578125 l 1
 580.1328125 0.392578125 l 1
 498.096679688 289.3046875 l 1
 457.075195312 433.771484375 l 1
 415.2734375 722.682617188 l 1
620.366210938 0.392578125 m 1
 634.822265625 289.3046875 l 1
 716.858398438 722.682617188 l 1
 897.91015625 722.682617188 l 1
 815.875 289.3046875 l 1
 761.185546875 0.392578125 l 1
 620.366210938 0.392578125 l 1
EndSplineSet
EndChar

StartChar: X
Encoding: 88 88 56
Width: 731
Flags: HW
LayerCount: 2
Fore
SplineSet
18.3125 722.682617188 m 1
 236.25390625 722.682617188 l 1
 476.94921875 361.538085938 l 1
 734.4140625 0.392578125 l 1
 516.47265625 0.392578125 l 1
 275.77734375 361.538085938 l 1
 18.3125 722.682617188 l 1
582.01953125 722.682617188 m 1
 734.4140625 722.682617188 l 1
 452.560546875 361.538085938 l 1
 170.70703125 0.392578125 l 1
 18.3125 0.392578125 l 1
 300.166015625 361.538085938 l 1
 582.01953125 722.682617188 l 1
EndSplineSet
EndChar

StartChar: Y
Encoding: 89 89 57
Width: 653
Flags: HW
LayerCount: 2
Fore
SplineSet
133.806640625 722.682617188 m 1
 133.806640625 557.586914062 l 1
 61.578125 557.586914062 l 1
 61.578125 722.682617188 l 1
 133.806640625 722.682617188 l 1
234.392578125 722.682617188 m 1
 306.62109375 722.682617188 l 1
 306.62109375 557.586914062 l 1
 234.392578125 557.586914062 l 1
 234.392578125 722.682617188 l 1
435.681640625 722.682617188 m 1
 435.681640625 557.586914062 l 1
 363.453125 557.586914062 l 1
 363.453125 722.682617188 l 1
 435.681640625 722.682617188 l 1
536.267578125 722.682617188 m 1
 608.49609375 722.682617188 l 1
 608.49609375 557.586914062 l 1
 536.267578125 557.586914062 l 1
 536.267578125 722.682617188 l 1
234.451171875 0.392578125 m 1
 162.22265625 0.392578125 l 1
 162.22265625 165.48828125 l 1
 234.451171875 165.48828125 l 1
 234.451171875 0.392578125 l 1
435.623046875 0.392578125 m 1
 435.623046875 165.48828125 l 1
 507.8515625 165.48828125 l 1
 507.8515625 0.392578125 l 1
 435.623046875 0.392578125 l 1
33.2216796875 722.682617188 m 1
 234.392578125 722.682617188 l 1
 375.270507812 325.420898438 l 1
 234.451171875 325.420898438 l 1
 33.2216796875 722.682617188 l 1
435.681640625 722.682617188 m 1
 636.852539062 722.682617188 l 1
 435.623046875 325.420898438 l 1
 294.803710938 325.420898438 l 1
 435.681640625 722.682617188 l 1
234.451171875 325.420898438 m 1
 435.623046875 325.420898438 l 1
 435.623046875 0.392578125 l 1
 234.451171875 0.392578125 l 1
 234.451171875 325.420898438 l 1
EndSplineSet
EndChar

StartChar: Z
Encoding: 90 90 58
Width: 665
Flags: HW
LayerCount: 2
Fore
SplineSet
66.240234375 557.586914062 m 1
 231.3359375 557.586914062 l 1
 231.3359375 485.358398438 l 1
 66.240234375 485.358398438 l 1
 66.240234375 557.586914062 l 1
615.184570312 165.48828125 m 1
 450.088867188 165.48828125 l 1
 450.088867188 237.716796875 l 1
 615.184570312 237.716796875 l 1
 615.184570312 165.48828125 l 1
66.240234375 557.586914062 m 1
 66.240234375 722.682617188 l 1
 615.184570312 722.682617188 l 1
 615.184570312 557.586914062 l 1
 66.240234375 557.586914062 l 1
66.240234375 0.392578125 m 1
 66.240234375 165.48828125 l 1
 615.184570312 165.48828125 l 1
 615.184570312 0.392578125 l 1
 66.240234375 0.392578125 l 1
495.176757812 679.397460938 m 1
 615.184570312 557.586914062 l 1
 186.248046875 43.677734375 l 1
 66.240234375 165.48828125 l 1
 495.176757812 679.397460938 l 1
EndSplineSet
EndChar

StartChar: bracketleft
Encoding: 91 91 59
Width: 420
Flags: HW
LayerCount: 2
Fore
SplineSet
62.822265625 772.936523438 m 1
 253.614257812 772.936523438 l 1
 253.614257812 -107.806640625 l 1
 62.822265625 -107.806640625 l 1
 62.822265625 772.936523438 l 1
253.614257812 616.359375 m 1
 253.614257812 772.936523438 l 1
 368.149414062 772.936523438 l 1
 368.149414062 616.359375 l 1
 253.614257812 616.359375 l 1
253.614257812 -107.806640625 m 1
 253.614257812 48.7705078125 l 1
 368.149414062 48.7705078125 l 1
 368.149414062 -107.806640625 l 1
 253.614257812 -107.806640625 l 1
EndSplineSet
EndChar

StartChar: backslash
Encoding: 92 92 60
Width: 459
Flags: HW
LayerCount: 2
Fore
SplineSet
16.7119140625 730.9375 m 1
 217.8828125 730.9375 l 1
 454.73046875 -7.8623046875 l 1
 253.559570312 -7.8623046875 l 1
 16.7119140625 730.9375 l 1
EndSplineSet
EndChar

StartChar: bracketright
Encoding: 93 93 61
Width: 420
Flags: HW
LayerCount: 2
Fore
SplineSet
177.358398438 772.936523438 m 1
 368.149414062 772.936523438 l 1
 368.149414062 -107.806640625 l 1
 177.358398438 -107.806640625 l 1
 177.358398438 772.936523438 l 1
177.358398438 616.359375 m 1
 62.822265625 616.359375 l 1
 62.822265625 772.936523438 l 1
 177.358398438 772.936523438 l 1
 177.358398438 616.359375 l 1
177.358398438 -107.806640625 m 1
 62.822265625 -107.806640625 l 1
 62.822265625 48.7705078125 l 1
 177.358398438 48.7705078125 l 1
 177.358398438 -107.806640625 l 1
EndSplineSet
EndChar

StartChar: asciicircum
Encoding: 94 94 62
Width: 540
Flags: HW
LayerCount: 2
Fore
SplineSet
24.3408203125 538.573242188 m 1
 188.294921875 773.578125 l 1
 365.372070312 773.578125 l 1
 529.327148438 538.573242188 l 1
 440.788085938 404.162109375 l 1
 276.833984375 639.166992188 l 1
 276.833984375 639.166992188 l 1
 112.87890625 404.162109375 l 1
 24.3408203125 538.573242188 l 1
EndSplineSet
EndChar

StartChar: underscore
Encoding: 95 95 63
Width: 587
Flags: HW
LayerCount: 2
Fore
SplineSet
66.240234375 0.392578125 m 1
 535.732421875 0.392578125 l 1
 535.732421875 -164.702148438 l 1
 66.240234375 -164.702148438 l 1
 66.240234375 0.392578125 l 1
EndSplineSet
EndChar

StartChar: grave
Encoding: 96 96 64
Width: 297
Flags: HW
LayerCount: 2
Fore
SplineSet
54.2802734375 800 m 1
 250.37890625 800 l 1
 338.622070312 598.834960938 l 1
 162.134765625 598.834960938 l 1
 54.2802734375 800 l 1
EndSplineSet
EndChar

StartChar: a
Encoding: 97 97 65
Width: 587
Flags: HW
LayerCount: 2
Fore
SplineSet
58.3076171875 471.915039062 m 1
 144.090820312 525.14453125 214.46875 545.206054688 315.42578125 545.206054688 c 0
 447.969726562 545.206054688 535.732421875 468.142578125 535.732421875 338.426757812 c 2
 535.732421875 99.451171875 l 1
 607.9609375 99.451171875 l 1
 607.9609375 49.921875 l 2
 607.944335938 49.91796875 411.926757812 0.396484375 411.91015625 0.392578125 c 2
 354.6796875 53.9462890625 l 1
 354.6796875 338.426757812 l 2
 354.6796875 425.223632812 339.954101562 498.979492188 264.893554688 498.979492188 c 0
 234.16796875 498.979492188 204.185546875 489.530273438 179.01171875 471.915039062 c 1
 179.01171875 358.411132812 l 1
 118.659179688 358.411132812 l 1
 58.3076171875 471.915039062 l 1
535.732421875 333.056640625 m 1
 535.732421875 267.018554688 l 1
 300.986328125 267.018554688 l 2
 240.701171875 267.018554688 206.01953125 224.852539062 206.01953125 162.596679688 c 0
 206.01953125 103.762695312 227.51171875 58.1748046875 280.556640625 58.1748046875 c 0
 323.16015625 58.1748046875 357.022460938 93.9541015625 354.6796875 136.493164062 c 1
 354.6796875 53.9462890625 l 1
 316.865234375 14.4638671875 264.568359375 -7.8623046875 209.899414062 -7.8623046875 c 0
 99.2236328125 -7.8623046875 24.966796875 54.9423828125 24.966796875 162.596679688 c 0
 24.966796875 278.950195312 119.3515625 333.056640625 245.783203125 333.056640625 c 2
 535.732421875 333.056640625 l 1
EndSplineSet
EndChar

StartChar: b
Encoding: 98 98 66
Width: 647
Flags: HW
LayerCount: 2
Fore
SplineSet
268.279296875 730.9375 m 1
 268.279296875 730.9375 l 1
 268.279296875 144.848632812 l 1
 268.279296875 78.8115234375 l 1
 217.987304688 0.392578125 l 1
 67.1083984375 0.392578125 l 1
 67.1083984375 648.389648438 l 1
 0 648.389648438 l 1
 0 689.6640625 l 1
 268.279296875 730.9375 l 1
214.185546875 375.317382812 m 1
 235.938476562 474.517578125 323.805664062 545.206054688 425.364257812 545.206054688 c 0
 580.068359375 545.206054688 663.9296875 431.216796875 663.9296875 268.671875 c 0
 663.9296875 106.126953125 580.068359375 -7.8623046875 425.364257812 -7.8623046875 c 0
 361.592773438 -7.8623046875 302.284179688 24.86328125 268.279296875 78.8115234375 c 1
 268.279296875 144.848632812 l 1
 269.549804688 96.615234375 309.015625 58.1748046875 357.264648438 58.1748046875 c 0
 453.491210938 58.1748046875 462.758789062 156.649414062 462.758789062 268.671875 c 0
 462.758789062 380.694335938 453.491210938 479.168945312 357.264648438 479.168945312 c 0
 284.428710938 479.168945312 236.631835938 403.040039062 268.279296875 337.439453125 c 1
 214.185546875 375.317382812 l 1
EndSplineSet
EndChar

StartChar: c
Encoding: 99 99 67
Width: 559
Flags: HW
LayerCount: 2
Fore
SplineSet
548.629882812 402.811523438 m 1
 466.08203125 299.626953125 l 1
 383.534179688 299.626953125 l 1
 383.534179688 402.811523438 l 1
 383.534179688 435.829101562 l 2
 383.534179688 464.379882812 370.624023438 485.357421875 344.118164062 485.357421875 c 0
 239.865234375 485.357421875 210.043945312 387.685546875 210.043945312 268.671875 c 0
 210.043945312 149.709960938 252.587890625 57.14453125 359.594726562 57.14453125 c 0
 426.579101562 57.14453125 486.193359375 99.6259765625 508.05859375 162.94140625 c 1
 548.629882812 134.532226562 l 1
 502.715820312 46.984375 412.020507812 -7.8623046875 313.1640625 -7.8623046875 c 0
 138.618164062 -7.8623046875 24.966796875 96.568359375 24.966796875 268.671875 c 0
 24.966796875 440.775390625 138.618164062 545.206054688 313.1640625 545.206054688 c 0
 423.005859375 545.206054688 497.614257812 500.086914062 548.629882812 402.811523438 c 1
EndSplineSet
EndChar

StartChar: d
Encoding: 100 100 68
Width: 647
Flags: HW
LayerCount: 2
Fore
SplineSet
621.788085938 730.9375 m 1
 621.788085938 144.848632812 l 1
 621.788085938 0.392578125 l 1
 470.909179688 0.392578125 l 1
 420.6171875 78.8115234375 l 1
 420.6171875 648.389648438 l 1
 353.5078125 648.389648438 l 1
 353.5078125 689.6640625 l 1
 621.788085938 730.9375 l 1
474.7109375 375.317382812 m 1
 420.6171875 337.439453125 l 1
 452.264648438 403.040039062 404.467773438 479.168945312 331.631835938 479.168945312 c 0
 235.405273438 479.168945312 226.137695312 380.694335938 226.137695312 268.671875 c 0
 226.137695312 156.649414062 235.405273438 58.1748046875 331.631835938 58.1748046875 c 0
 379.880859375 58.1748046875 419.346679688 96.615234375 420.6171875 144.848632812 c 1
 420.6171875 78.8115234375 l 1
 386.612304688 24.86328125 327.303710938 -7.8623046875 263.532226562 -7.8623046875 c 0
 108.828125 -7.8623046875 24.966796875 106.126953125 24.966796875 268.671875 c 0
 24.966796875 431.216796875 108.828125 545.206054688 263.532226562 545.206054688 c 0
 365.090820312 545.206054688 452.958007812 474.517578125 474.7109375 375.317382812 c 1
EndSplineSet
EndChar

StartChar: e
Encoding: 101 101 69
Width: 604
Flags: HW
LayerCount: 2
Fore
SplineSet
571.3984375 238.544921875 m 1
 412.977539062 238.544921875 l 1
 412.977539062 288.07421875 l 2
 412.977539062 396.635742188 415.23828125 495.676757812 321.873046875 495.676757812 c 0
 228.057617188 495.676757812 226.137695312 397.331054688 226.137695312 288.07421875 c 2
 226.137695312 263.309570312 l 1
 226.137695312 238.544921875 l 2
 226.137695312 142.163085938 269.934570312 71.451171875 359.487304688 71.451171875 c 0
 414.233398438 71.451171875 467.329101562 90.19140625 509.946289062 124.556640625 c 1
 550.518554688 96.1474609375 l 1
 492.9140625 30.0654296875 409.537109375 -7.8623046875 321.873046875 -7.8623046875 c 0
 144.6484375 -7.8623046875 24.966796875 91.44921875 24.966796875 263.309570312 c 0
 24.966796875 439.411132812 142.629882812 545.206054688 321.873046875 545.206054688 c 0
 490.88671875 545.206054688 594.030273438 434.36328125 594.030273438 263.309570312 c 0
 594.030273438 249.012695312 585.637695312 239.829101562 571.3984375 238.544921875 c 1
24.966796875 238.544921875 m 1
 24.966796875 288.07421875 l 1
 594.030273438 288.07421875 l 1
 571.3984375 238.544921875 l 1
 24.966796875 238.544921875 l 1
EndSplineSet
EndChar

StartChar: f
Encoding: 102 102 70
Width: 465
Flags: HW
LayerCount: 2
Fore
SplineSet
132.8671875 0.392578125 m 1
 33.2216796875 0.392578125 l 1
 33.2216796875 40.015625 l 1
 132.8671875 66.4296875 l 1
 132.8671875 0.392578125 l 1
334.038085938 0.392578125 m 1
 334.038085938 66.4296875 l 1
 433.684570312 66.4296875 l 1
 433.684570312 0.392578125 l 1
 334.038085938 0.392578125 l 1
132.8671875 0.392578125 m 1
 132.8671875 565.65625 l 2
 132.8671875 685.084960938 218.948242188 751.57421875 343.50390625 751.57421875 c 0
 380.344726562 751.57421875 416.973632812 746.008789062 452.151367188 735.06640625 c 1
 452.151367188 685.537109375 l 1
 405.412109375 685.537109375 l 2
 348.415039062 685.537109375 334.038085938 631.092773438 334.038085938 565.65625 c 2
 334.038085938 0.392578125 l 1
 132.8671875 0.392578125 l 1
33.2216796875 536.951171875 m 1
 452.151367188 536.951171875 l 1
 452.151367188 470.9140625 l 1
 33.2216796875 470.9140625 l 1
 33.2216796875 536.951171875 l 1
EndSplineSet
EndChar

StartChar: g
Encoding: 103 103 71
Width: 608
Flags: HW
LayerCount: 2
Fore
SplineSet
273.014648438 545.723632812 m 1
 404.973632812 545.723632812 506.639648438 496.184570312 506.639648438 376.84375 c 0
 506.639648438 257.502929688 404.973632812 207.963867188 273.014648438 207.963867188 c 0
 141.056640625 207.963867188 39.3896484375 257.502929688 39.3896484375 376.84375 c 0
 39.3896484375 496.184570312 141.056640625 545.723632812 273.014648438 545.723632812 c 1
 273.014648438 496.294921875 l 1
 219.249023438 496.294921875 220.075195312 439.38671875 220.075195312 376.84375 c 0
 220.075195312 314.299804688 219.249023438 257.392578125 273.014648438 257.392578125 c 0
 326.78125 257.392578125 325.955078125 314.299804688 325.955078125 376.84375 c 0
 325.955078125 439.38671875 326.78125 496.294921875 273.014648438 496.294921875 c 1
 273.014648438 545.723632812 l 1
273.014648438 257.392578125 m 1
 273.014648438 207.963867188 l 1
 241.380859375 207.963867188 214.051757812 203.905273438 214.051757812 176.661132812 c 0
 214.051757812 149.416015625 241.380859375 145.358398438 273.014648438 145.358398438 c 2
 424.870117188 145.358398438 l 2
 534.647460938 145.358398438 612.9609375 91.154296875 612.9609375 -12.3984375 c 0
 612.9609375 -162.114257812 467.838867188 -195.693359375 295.283203125 -195.693359375 c 0
 162.091796875 -195.693359375 106.34375 -177.029296875 0 -96.837890625 c 1
 21.40234375 -84.4814453125 l 1
 89.92578125 -140.423828125 175.670898438 -170.98046875 264.130859375 -170.98046875 c 0
 350.400390625 -170.98046875 432.276367188 -150.5234375 432.276367188 -75.8310546875 c 0
 432.276367188 -26.91015625 399.008789062 2.017578125 348.942382812 2.017578125 c 2
 209.935546875 2.017578125 l 2
 112.918945312 2.017578125 39.3896484375 41.1669921875 39.3896484375 129.705078125 c 0
 39.3896484375 238.337890625 147.143554688 257.392578125 273.014648438 257.392578125 c 1
621.19921875 537.485351562 m 1
 621.19921875 376.84375 l 1
 416.297851562 376.84375 l 1
 580.219726562 537.485351562 l 1
 621.19921875 537.485351562 l 1
0 -96.837890625 m 1
 188.533203125 14.3740234375 l 1
 209.935546875 2.017578125 l 1
 21.40234375 -109.194335938 l 1
 0 -96.837890625 l 1
EndSplineSet
EndChar

StartChar: h
Encoding: 104 104 72
Width: 609
Flags: HW
LayerCount: 2
Fore
SplineSet
66.240234375 722.682617188 m 1
 267.411132812 722.682617188 l 1
 267.411132812 0.392578125 l 1
 66.240234375 0.392578125 l 1
 66.240234375 722.682617188 l 1
226.838867188 356.102539062 m 1
 215.956054688 468.724609375 285.40234375 545.206054688 398.548828125 545.206054688 c 0
 519.116210938 545.206054688 583.197265625 455.0234375 583.197265625 327.693359375 c 2
 583.197265625 0.392578125 l 1
 382.026367188 0.392578125 l 1
 382.026367188 327.693359375 l 2
 382.026367188 370.647460938 368.608398438 404.874023438 330.450195312 404.874023438 c 0
 285.235351562 404.874023438 258.3828125 371.998046875 267.411132812 327.693359375 c 1
 226.838867188 356.102539062 l 1
EndSplineSet
EndChar

StartChar: i
Encoding: 105 105 73
Width: 332
Flags: HW
LayerCount: 2
Fore
SplineSet
24.966796875 371.85546875 m 1
 24.966796875 536.951171875 l 1
 204.510742188 536.951171875 l 1
 204.510742188 371.85546875 l 1
 24.966796875 371.85546875 l 1
103.924804688 536.951171875 m 1
 305.095703125 536.951171875 l 1
 305.095703125 0.392578125 l 1
 103.924804688 0.392578125 l 1
 103.924804688 536.951171875 l 1
310.125 691.727539062 m 0
 310.125 663.71484375 298.99609375 636.853515625 279.190429688 617.047851562 c 0
 259.383789062 597.241210938 232.522460938 586.112304688 204.510742188 586.112304688 c 0
 176.498046875 586.112304688 149.63671875 597.241210938 129.831054688 617.047851562 c 0
 110.024414062 636.853515625 98.8955078125 663.71484375 98.8955078125 691.727539062 c 0
 98.8955078125 719.739257812 110.024414062 746.600585938 129.831054688 766.407226562 c 0
 149.63671875 786.212890625 176.498046875 797.341796875 204.510742188 797.341796875 c 0
 232.522460938 797.341796875 259.383789062 786.212890625 279.190429688 766.407226562 c 0
 298.99609375 746.600585938 310.125 719.739257812 310.125 691.727539062 c 0
EndSplineSet
EndChar

StartChar: j
Encoding: 106 106 74
Width: 298
Flags: HW
LayerCount: 2
Fore
SplineSet
65.2900390625 537.485351562 m 1
 266.051757812 537.485351562 l 1
 266.051757812 2.017578125 l 2
 266.051757812 -127.387695312 168.76953125 -195.693359375 31.8671875 -195.693359375 c 2
 12.7529296875 -195.693359375 l 1
 12.7529296875 -30.93359375 l 1
 31.8671875 -30.93359375 l 2
 50.2412109375 -30.93359375 65.2900390625 -16.2666015625 65.2900390625 2.017578125 c 2
 65.2900390625 537.485351562 l 1
271.071289062 691.947265625 m 0
 271.071289062 663.9921875 259.96484375 637.185546875 240.198242188 617.418945312 c 0
 220.432617188 597.653320312 193.625976562 586.546875 165.670898438 586.546875 c 0
 137.715820312 586.546875 110.909179688 597.653320312 91.142578125 617.418945312 c 0
 71.376953125 637.185546875 60.2705078125 663.9921875 60.2705078125 691.947265625 c 0
 60.2705078125 719.90234375 71.376953125 746.708984375 91.142578125 766.474609375 c 0
 110.909179688 786.241210938 137.715820312 797.34765625 165.670898438 797.34765625 c 0
 193.625976562 797.34765625 220.432617188 786.241210938 240.198242188 766.474609375 c 0
 259.96484375 746.708984375 271.071289062 719.90234375 271.071289062 691.947265625 c 0
EndSplineSet
EndChar

StartChar: k
Encoding: 107 107 75
Width: 565
Flags: HW
LayerCount: 2
Fore
SplineSet
66.240234375 722.682617188 m 1
 267.411132812 722.682617188 l 1
 267.411132812 0.392578125 l 1
 66.240234375 0.392578125 l 1
 66.240234375 722.682617188 l 1
355.490234375 536.951171875 m 1
 587.32421875 536.951171875 l 1
 468.58203125 268.671875 l 1
 587.32421875 0.392578125 l 1
 355.490234375 0.392578125 l 1
 267.411132812 268.671875 l 1
 355.490234375 536.951171875 l 1
367.997070312 186.124023438 m 1
 166.825195312 186.124023438 l 1
 166.825195312 351.219726562 l 1
 367.997070312 351.219726562 l 1
 367.997070312 186.124023438 l 1
EndSplineSet
EndChar

StartChar: l
Encoding: 108 108 76
Width: 288
Flags: HW
LayerCount: 2
Fore
SplineSet
47.1708984375 730.9375 m 1
 248.341796875 730.9375 l 1
 248.341796875 161.362304688 l 2
 248.341796875 147.9140625 259.165039062 165.48828125 265.797851562 165.48828125 c 2
 295.310546875 165.48828125 l 1
 295.310546875 0.392578125 l 1
 265.797851562 0.392578125 l 2
 141.856445312 0.392578125 47.1708984375 48.7470703125 47.1708984375 161.362304688 c 2
 47.1708984375 730.9375 l 1
EndSplineSet
EndChar

StartChar: m
Encoding: 109 109 77
Width: 908
Flags: HW
LayerCount: 2
Fore
SplineSet
66.240234375 536.951171875 m 1
 267.411132812 536.951171875 l 1
 267.411132812 0.392578125 l 1
 66.240234375 0.392578125 l 1
 66.240234375 536.951171875 l 1
226.838867188 384.787109375 m 1
 227.89453125 473.690429688 300.264648438 545.206054688 389.173828125 545.206054688 c 0
 483.833984375 545.206054688 540.795898438 478.216796875 525.579101562 384.787109375 c 1
 526.634765625 473.690429688 599.004882812 545.206054688 687.9140625 545.206054688 c 0
 805.689453125 545.206054688 864.891601562 453.719726562 864.891601562 327.693359375 c 2
 864.891601562 0.392578125 l 1
 663.720703125 0.392578125 l 1
 663.720703125 327.693359375 l 2
 663.720703125 369.525390625 656.052734375 404.874023438 619.814453125 404.874023438 c 0
 592.1328125 404.874023438 568.9453125 383.918945312 566.151367188 356.377929688 c 1
 566.151367188 327.693359375 l 1
 566.151367188 0.392578125 l 1
 364.98046875 0.392578125 l 1
 364.98046875 327.693359375 l 2
 364.98046875 369.525390625 357.3125 404.874023438 321.07421875 404.874023438 c 0
 293.392578125 404.874023438 270.205078125 383.918945312 267.411132812 356.377929688 c 1
 226.838867188 384.787109375 l 1
EndSplineSet
EndChar

StartChar: n
Encoding: 110 110 78
Width: 631
Flags: HW
LayerCount: 2
Fore
SplineSet
41.4755859375 536.951171875 m 1
 242.646484375 536.951171875 l 1
 242.646484375 0.392578125 l 1
 41.4755859375 0.392578125 l 1
 41.4755859375 536.951171875 l 1
202.07421875 356.102539062 m 1
 206.840820312 461.890625 293.995117188 545.206054688 399.890625 545.206054688 c 0
 528.69921875 545.206054688 605.8984375 458.909179688 605.8984375 327.693359375 c 2
 605.8984375 0.392578125 l 1
 404.727539062 0.392578125 l 1
 404.727539062 327.693359375 l 2
 404.727539062 374.221679688 377.431640625 404.874023438 331.791015625 404.874023438 c 0
 287.026367188 404.874023438 249.053710938 371.998046875 242.646484375 327.693359375 c 1
 202.07421875 356.102539062 l 1
EndSplineSet
EndChar

StartChar: o
Encoding: 111 111 79
Width: 637
Flags: HW
LayerCount: 2
Fore
SplineSet
326.524414062 545.206054688 m 1
 505.97265625 545.206054688 628.08203125 446.178710938 628.08203125 272.799804688 c 0
 628.08203125 96.1865234375 507.502929688 -7.8623046875 326.524414062 -7.8623046875 c 0
 145.546875 -7.8623046875 24.966796875 96.1865234375 24.966796875 272.799804688 c 0
 24.966796875 446.178710938 147.077148438 545.206054688 326.524414062 545.206054688 c 1
 326.524414062 404.874023438 l 1
 257.459960938 404.874023438 226.137695312 348.168945312 226.137695312 272.799804688 c 0
 226.137695312 193.69921875 255.171875 132.469726562 326.524414062 132.469726562 c 0
 397.877929688 132.469726562 426.911132812 193.69921875 426.911132812 272.799804688 c 0
 426.911132812 348.168945312 395.58984375 404.874023438 326.524414062 404.874023438 c 1
 326.524414062 545.206054688 l 1
EndSplineSet
EndChar

StartChar: p
Encoding: 112 112 80
Width: 646
Flags: HW
LayerCount: 2
Fore
SplineSet
87.1787109375 537.485351562 m 1
 87.1787109375 372.725585938 l 1
 15.0966796875 372.725585938 l 1
 15.0966796875 537.485351562 l 1
 87.1787109375 537.485351562 l 1
87.1787109375 -195.693359375 m 1
 15.0966796875 -195.693359375 l 1
 15.0966796875 -30.93359375 l 1
 87.1787109375 -30.93359375 l 1
 87.1787109375 -195.693359375 l 1
87.1787109375 537.485351562 m 1
 267.86328125 537.485351562 l 1
 287.940429688 430.393554688 l 1
 287.940429688 -195.693359375 l 1
 87.1787109375 -195.693359375 l 1
 87.1787109375 537.485351562 l 1
233.956054688 376.1796875 m 1
 255.665039062 475.1796875 343.354492188 545.723632812 444.706054688 545.723632812 c 0
 599.095703125 545.723632812 682.786132812 431.966796875 682.786132812 269.751953125 c 0
 682.786132812 107.537109375 599.095703125 -6.220703125 444.706054688 -6.220703125 c 0
 336.725585938 -6.220703125 245.986328125 74.9150390625 233.956054688 182.223632812 c 1
 287.940429688 220.0234375 l 1
 289.372070312 172.008789062 328.708984375 133.826171875 376.745117188 133.826171875 c 0
 448.487304688 133.826171875 482.024414062 191.869140625 482.024414062 269.751953125 c 0
 482.024414062 347.633789062 448.487304688 405.676757812 376.745117188 405.676757812 c 0
 335.408203125 405.676757812 299.119140625 378.17578125 287.940429688 338.379882812 c 1
 233.956054688 376.1796875 l 1
EndSplineSet
EndChar

StartChar: q
Encoding: 113 113 81
Width: 646
Flags: HW
LayerCount: 2
Fore
SplineSet
439.83984375 537.485351562 m 1
 439.83984375 372.725585938 l 1
 367.7578125 372.725585938 l 1
 367.7578125 537.485351562 l 1
 439.83984375 537.485351562 l 1
419.76171875 -195.693359375 m 1
 347.6796875 -195.693359375 l 1
 347.6796875 -30.93359375 l 1
 419.76171875 -30.93359375 l 1
 419.76171875 -195.693359375 l 1
439.83984375 537.485351562 m 1
 620.524414062 537.485351562 l 1
 620.524414062 -195.693359375 l 1
 419.76171875 -195.693359375 l 1
 419.76171875 430.393554688 l 1
 439.83984375 537.485351562 l 1
473.747070312 376.1796875 m 1
 419.76171875 338.379882812 l 1
 408.583984375 378.17578125 372.293945312 405.676757812 330.958007812 405.676757812 c 0
 259.215820312 405.676757812 225.678710938 347.633789062 225.678710938 269.751953125 c 0
 225.678710938 191.869140625 259.215820312 133.826171875 330.958007812 133.826171875 c 0
 378.994140625 133.826171875 418.331054688 172.008789062 419.76171875 220.0234375 c 1
 473.747070312 182.223632812 l 1
 461.716796875 74.9150390625 370.977539062 -6.220703125 262.997070312 -6.220703125 c 0
 108.607421875 -6.220703125 24.916015625 107.537109375 24.916015625 269.751953125 c 0
 24.916015625 431.966796875 108.607421875 545.723632812 262.997070312 545.723632812 c 0
 364.348632812 545.723632812 452.038085938 475.1796875 473.747070312 376.1796875 c 1
EndSplineSet
EndChar

StartChar: r
Encoding: 114 114 82
Width: 399
Flags: HW
LayerCount: 2
Fore
SplineSet
66.240234375 536.951171875 m 1
 267.411132812 536.951171875 l 1
 267.411132812 0.392578125 l 1
 66.240234375 0.392578125 l 1
 66.240234375 536.951171875 l 1
172.745117188 388.6171875 m 1
 233.491210938 475.372070312 283.99609375 545.206054688 388.3828125 545.206054688 c 1
 388.3828125 380.110351562 l 1
 335.626953125 380.110351562 297.538085938 365.356445312 267.411132812 322.331054688 c 1
 172.745117188 388.6171875 l 1
EndSplineSet
EndChar

StartChar: s
Encoding: 115 115 83
Width: 520
Flags: HW
LayerCount: 2
Fore
SplineSet
526.751953125 453.678710938 m 1
 526.751953125 350.494140625 l 1
 361.65625 350.494140625 l 1
 361.65625 453.678710938 l 1
 526.751953125 453.678710938 l 1
15.1279296875 91.919921875 m 1
 15.1279296875 195.104492188 l 1
 180.22265625 195.104492188 l 1
 180.22265625 91.919921875 l 1
 15.1279296875 91.919921875 l 1
287.200195312 545.206054688 m 0
 375.590820312 545.206054688 460.879882812 512.619140625 526.751953125 453.678710938 c 1
 405.038085938 368.454101562 l 1
 370.3203125 392.1796875 329.25 404.874023438 287.200195312 404.874023438 c 0
 250.7578125 404.874023438 215.61328125 411.780273438 215.61328125 379.77734375 c 0
 215.61328125 360.200195312 234.6015625 356.416992188 256.64453125 354.681640625 c 2
 309.829101562 350.49609375 l 2
 437.3828125 340.45703125 526.751953125 277.444335938 526.751953125 156.248046875 c 0
 526.751953125 28.341796875 406.703125 -7.8623046875 260.607421875 -7.8623046875 c 0
 168.904296875 -7.8623046875 80.82421875 27.9404296875 15.1279296875 91.919921875 c 1
 136.840820312 177.14453125 l 1
 171.623046875 148.2734375 215.404296875 132.469726562 260.607421875 132.469726562 c 0
 302.888671875 132.469726562 345.69921875 117.729492188 345.69921875 156.248046875 c 0
 345.69921875 178.840820312 321.8046875 178.028320312 296.413085938 180.026367188 c 2
 243.227539062 184.211914062 l 2
 118.798828125 194.004882812 34.560546875 260.065429688 34.560546875 379.77734375 c 0
 34.560546875 503.731445312 147.099609375 545.206054688 287.200195312 545.206054688 c 0
EndSplineSet
EndChar

StartChar: t
Encoding: 116 116 84
Width: 465
Flags: HW
LayerCount: 2
Fore
SplineSet
24.966796875 371.85546875 m 1
 24.966796875 536.951171875 l 1
 452.151367188 536.951171875 l 1
 452.151367188 371.85546875 l 1
 24.966796875 371.85546875 l 1
118.908203125 669.0234375 m 1
 320.079101562 722.682617188 l 1
 320.079101562 180.965820312 l 2
 320.079101562 155.469726562 337.819335938 140.72265625 364.103515625 140.72265625 c 2
 447.749023438 140.72265625 l 1
 457.5390625 0.7333984375 l 1
 411.743164062 -5.6259765625 379.384765625 -7.8623046875 333.149414062 -7.8623046875 c 0
 206.510742188 -7.8623046875 118.908203125 59.5966796875 118.908203125 180.965820312 c 2
 118.908203125 669.0234375 l 1
EndSplineSet
EndChar

StartChar: u
Encoding: 117 117 85
Width: 631
Flags: HW
LayerCount: 2
Fore
SplineSet
404.727539062 536.951171875 m 1
 605.8984375 536.951171875 l 1
 605.8984375 0.392578125 l 1
 404.727539062 0.392578125 l 1
 404.727539062 536.951171875 l 1
41.4755859375 536.951171875 m 1
 242.646484375 536.951171875 l 1
 242.646484375 209.650390625 l 2
 242.646484375 163.122070312 269.94140625 132.469726562 315.58203125 132.469726562 c 0
 360.34765625 132.469726562 398.319335938 165.345703125 404.727539062 209.650390625 c 1
 458.822265625 171.772460938 l 1
 445.125 68.94140625 357.413085938 -7.8623046875 253.673828125 -7.8623046875 c 0
 122.370117188 -7.8623046875 41.4755859375 77.232421875 41.4755859375 209.650390625 c 2
 41.4755859375 536.951171875 l 1
EndSplineSet
EndChar

StartChar: v
Encoding: 118 118 86
Width: 615
Flags: HW
LayerCount: 2
Fore
SplineSet
395.95703125 536.951171875 m 1
 395.95703125 371.85546875 l 1
 323.727539062 371.85546875 l 1
 323.727539062 536.951171875 l 1
 395.95703125 536.951171875 l 1
496.541992188 536.951171875 m 1
 568.770507812 536.951171875 l 1
 568.770507812 371.85546875 l 1
 496.541992188 371.85546875 l 1
 496.541992188 536.951171875 l 1
133.806640625 536.951171875 m 1
 133.806640625 371.85546875 l 1
 61.578125 371.85546875 l 1
 61.578125 536.951171875 l 1
 133.806640625 536.951171875 l 1
234.392578125 536.951171875 m 1
 306.62109375 536.951171875 l 1
 306.62109375 371.85546875 l 1
 234.392578125 371.85546875 l 1
 234.392578125 536.951171875 l 1
33.2216796875 536.951171875 m 1
 234.392578125 536.951171875 l 1
 355.408203125 0.392578125 l 1
 214.588867188 0.392578125 l 1
 33.2216796875 536.951171875 l 1
395.95703125 536.951171875 m 1
 597.127929688 536.951171875 l 1
 415.759765625 0.392578125 l 1
 274.940429688 0.392578125 l 1
 395.95703125 536.951171875 l 1
EndSplineSet
EndChar

StartChar: w
Encoding: 119 119 87
Width: 831
Flags: HW
LayerCount: 2
Fore
SplineSet
33.2216796875 536.951171875 m 1
 234.392578125 536.951171875 l 1
 285.498046875 161.362304688 l 1
 247.048828125 0.392578125 l 1
 106.229492188 0.392578125 l 1
 84.3271484375 161.362304688 l 1
 33.2216796875 536.951171875 l 1
166.581054688 0.392578125 m 1
 270.498046875 402.811523438 l 1
 160.985351562 134.532226562 l 1
 325.25390625 536.951171875 l 1
 466.073242188 536.951171875 l 1
 362.15625 134.532226562 l 1
 471.668945312 402.811523438 l 1
 307.400390625 0.392578125 l 1
 166.581054688 0.392578125 l 1
385.606445312 536.951171875 m 1
 526.424804688 536.951171875 l 1
 690.694335938 134.532226562 l 1
 581.181640625 402.811523438 l 1
 685.098632812 0.392578125 l 1
 544.279296875 0.392578125 l 1
 380.010742188 402.811523438 l 1
 489.522460938 134.532226562 l 1
 385.606445312 536.951171875 l 1
604.630859375 0.392578125 m 1
 599.03515625 402.811523438 l 1
 617.287109375 536.951171875 l 1
 818.458007812 536.951171875 l 1
 800.206054688 402.811523438 l 1
 745.450195312 0.392578125 l 1
 604.630859375 0.392578125 l 1
EndSplineSet
EndChar

StartChar: x
Encoding: 120 120 88
Width: 570
Flags: HW
LayerCount: 2
Fore
SplineSet
18.3125 536.951171875 m 1
 235.446289062 536.951171875 l 1
 394.658203125 268.671875 l 1
 569.833984375 0.392578125 l 1
 352.700195312 0.392578125 l 1
 193.487304688 268.671875 l 1
 18.3125 536.951171875 l 1
352.700195312 536.951171875 m 1
 569.833984375 536.951171875 l 1
 394.658203125 268.671875 l 1
 235.446289062 0.392578125 l 1
 18.3125 0.392578125 l 1
 193.487304688 268.671875 l 1
 352.700195312 536.951171875 l 1
EndSplineSet
EndChar

StartChar: y
Encoding: 121 121 89
Width: 613
Flags: HW
LayerCount: 2
Fore
SplineSet
16.677734375 537.485351562 m 1
 217.440429688 537.485351562 l 1
 316.177734375 269.751953125 l 1
 354.685546875 2.0185546875 l 1
 214.15234375 2.0185546875 l 1
 115.415039062 269.751953125 l 1
 16.677734375 537.485351562 l 1
411.626953125 537.485351562 m 1
 612.389648438 537.485351562 l 1
 513.65234375 269.751953125 l 1
 414.915039062 2.0185546875 l 1
 274.381835938 2.0185546875 l 1
 312.889648438 269.751953125 l 1
 411.626953125 537.485351562 l 1
214.15234375 2.0185546875 m 1
 414.915039062 2.0185546875 l 1
 342.000976562 -195.693359375 l 1
 141.239257812 -195.693359375 l 1
 214.15234375 2.0185546875 l 1
EndSplineSet
EndChar

StartChar: z
Encoding: 122 122 90
Width: 576
Flags: HW
LayerCount: 2
Fore
SplineSet
66.240234375 371.85546875 m 1
 231.3359375 371.85546875 l 1
 231.3359375 299.626953125 l 1
 66.240234375 299.626953125 l 1
 66.240234375 371.85546875 l 1
524.381835938 165.48828125 m 1
 359.286132812 165.48828125 l 1
 359.286132812 237.716796875 l 1
 524.381835938 237.716796875 l 1
 524.381835938 165.48828125 l 1
66.240234375 371.85546875 m 1
 66.240234375 536.951171875 l 1
 524.381835938 536.951171875 l 1
 524.381835938 371.85546875 l 1
 66.240234375 371.85546875 l 1
66.240234375 0.392578125 m 1
 66.240234375 165.48828125 l 1
 524.381835938 165.48828125 l 1
 524.381835938 0.392578125 l 1
 66.240234375 0.392578125 l 1
391.557617188 479.547851562 m 1
 524.381835938 371.85546875 l 1
 199.064453125 57.7958984375 l 1
 66.240234375 165.48828125 l 1
 391.557617188 479.547851562 l 1
EndSplineSet
EndChar

StartChar: braceleft
Encoding: 123 123 91
Width: 367
Flags: HW
LayerCount: 2
Fore
SplineSet
356.497070312 772.936523438 m 1
 356.497070312 616.359375 l 1
 311.458007812 616.359375 283.102539062 588.00390625 283.102539062 542.963867188 c 2
 283.102539062 484.249023438 l 2
 283.102539062 351.749023438 166.916992188 301.25 18.9150390625 301.25 c 1
 18.9150390625 410.853515625 l 1
 63.955078125 410.853515625 92.310546875 439.209960938 92.310546875 484.249023438 c 2
 92.310546875 542.963867188 l 2
 92.310546875 691.536132812 200.84765625 772.936523438 356.497070312 772.936523438 c 1
18.9150390625 363.879882812 m 1
 166.916992188 363.879882812 283.102539062 313.380859375 283.102539062 180.880859375 c 2
 283.102539062 122.166015625 l 2
 283.102539062 77.1259765625 311.458007812 48.7705078125 356.497070312 48.7705078125 c 1
 356.497070312 -107.806640625 l 1
 200.84765625 -107.806640625 92.310546875 -26.40625 92.310546875 122.166015625 c 2
 92.310546875 180.880859375 l 2
 92.310546875 225.920898438 63.955078125 254.276367188 18.9150390625 254.276367188 c 1
 18.9150390625 363.879882812 l 1
EndSplineSet
EndChar

StartChar: bar
Encoding: 124 124 92
Width: 378
Flags: HW
LayerCount: 2
Fore
SplineSet
95.7705078125 800 m 1
 291.869140625 800 l 1
 291.869140625 -105.2421875 l 1
 95.7705078125 -105.2421875 l 1
 95.7705078125 800 l 1
EndSplineSet
EndChar

StartChar: braceright
Encoding: 125 125 93
Width: 368
Flags: HW
LayerCount: 2
Fore
SplineSet
23.7109375 617.470703125 m 1
 23.7109375 774.260742188 l 1
 179.573242188 774.260742188 288.2578125 692.75 288.2578125 543.975585938 c 2
 288.2578125 485.180664062 l 2
 288.2578125 440.080078125 316.65234375 411.685546875 361.752929688 411.685546875 c 1
 361.752929688 254.89453125 l 1
 205.890625 254.89453125 97.2060546875 336.40625 97.2060546875 485.180664062 c 2
 97.2060546875 543.975585938 l 2
 97.2060546875 589.076171875 68.8115234375 617.470703125 23.7109375 617.470703125 c 1
361.752929688 254.89453125 m 1
 316.65234375 254.89453125 288.2578125 226.5 288.2578125 181.399414062 c 2
 288.2578125 122.604492188 l 2
 288.2578125 -26.169921875 179.573242188 -107.681640625 23.7109375 -107.681640625 c 1
 23.7109375 49.109375 l 1
 68.8115234375 49.109375 97.2060546875 77.50390625 97.2060546875 122.604492188 c 2
 97.2060546875 181.399414062 l 2
 97.2060546875 314.079101562 213.549804688 364.647460938 361.752929688 364.647460938 c 1
 361.752929688 254.89453125 l 1
EndSplineSet
EndChar

StartChar: asciitilde
Encoding: 126 126 94
Width: 692
Flags: HW
LayerCount: 2
Fore
SplineSet
24.966796875 161.362304688 m 1
 24.966796875 276.983398438 110.4375 375.981445312 222.9296875 375.981445312 c 0
 292.926757812 375.981445312 341.807617188 364.806640625 404.8515625 334.391601562 c 1
 304.94921875 202.952148438 l 1
 274.92578125 208.815429688 253.520507812 210.88671875 222.9296875 210.88671875 c 0
 200.951171875 210.88671875 190.0625 186.137695312 190.0625 161.362304688 c 1
 24.966796875 161.362304688 l 1
684.833984375 375.981445312 m 1
 684.833984375 260.360351562 599.364257812 161.362304688 486.872070312 161.362304688 c 0
 416.874023438 161.362304688 367.994140625 172.537109375 304.94921875 202.952148438 c 1
 404.8515625 334.391601562 l 1
 434.875 328.528320312 456.28125 326.45703125 486.872070312 326.45703125 c 0
 508.850585938 326.45703125 519.73828125 351.206054688 519.73828125 375.981445312 c 1
 684.833984375 375.981445312 l 1
EndSplineSet
EndChar
